<svg width="32" height="32" viewBox="0 0 32 32" fill="none" xmlns="http://www.w3.org/2000/svg">
<g clip-path="url(#clip0_256_77832)">
<path d="M11 1.5C11 0.66875 10.3313 0 9.5 0C8.66875 0 8 0.66875 8 1.5V4C5.79375 4 4 5.79375 4 8H1.5C0.66875 8 0 8.66875 0 9.5C0 10.3313 0.66875 11 1.5 11H4V14.5H1.5C0.66875 14.5 0 15.1687 0 16C0 16.8312 0.66875 17.5 1.5 17.5H4V21H1.5C0.66875 21 0 21.6688 0 22.5C0 23.3312 0.66875 24 1.5 24H4C4 26.2062 5.79375 28 8 28V30.5C8 31.3312 8.66875 32 9.5 32C10.3313 32 11 31.3312 11 30.5V28H14.5V30.5C14.5 31.3312 15.1687 32 16 32C16.8312 32 17.5 31.3312 17.5 30.5V28H21V30.5C21 31.3312 21.6688 32 22.5 32C23.3312 32 24 31.3312 24 30.5V28C26.2062 28 28 26.2062 28 24H30.5C31.3312 24 32 23.3312 32 22.5C32 21.6688 31.3312 21 30.5 21H28V17.5H30.5C31.3312 17.5 32 16.8312 32 16C32 15.1687 31.3312 14.5 30.5 14.5H28V11H30.5C31.3312 11 32 10.3313 32 9.5C32 8.66875 31.3312 8 30.5 8H28C28 5.79375 26.2062 4 24 4V1.5C24 0.66875 23.3312 0 22.5 0C21.6688 0 21 0.66875 21 1.5V4H17.5V1.5C17.5 0.66875 16.8312 0 16 0C15.1687 0 14.5 0.66875 14.5 1.5V4H11V1.5ZM13 11C13.4 11 13.7562 11.2375 13.9187 11.6L16.5438 17.6L17.4188 19.6C17.6375 20.1063 17.4125 20.6938 16.9062 20.9188C16.4 21.1438 15.8125 20.9062 15.5875 20.4062L14.9688 19H11.0312L10.4187 20.4C10.2 20.9062 9.60625 21.1375 9.1 20.9125C8.59375 20.6875 8.3625 20.1 8.5875 19.5938L9.4625 17.5938L12.0875 11.5938C12.2437 11.2312 12.6063 10.9937 13.0063 10.9937L13 11ZM14.0938 17L13 14.4937L11.9062 17H14.1H14.0938ZM21 11C21.55 11 22 11.45 22 12V20C22 20.55 21.55 21 21 21C20.45 21 20 20.55 20 20V12C20 11.45 20.45 11 21 11Z" fill="#EAEEF9"/>
</g>
<defs>
<clipPath id="clip0_256_77832">
<rect width="32" height="32" fill="white"/>
</clipPath>
</defs>
</svg>
