<svg width="24" height="24" viewBox="0 0 24 24" fill="none" xmlns="http://www.w3.org/2000/svg">
<g clip-path="url(#clip0_256_78906)">
<path d="M9.46875 3V3.84375V5.25H11.1562V3.84375V3H12.8438V3.84375V5.25H14.5312V3.84375V3H16.2188V3.84375V5.25H17.0625H18.75V6.9375V7.78125H20.1562H21V9.46875H20.1562H18.75V11.1562H20.1562H21V12.8438H20.1562H18.75V14.5312H20.1562H21V16.2188H20.1562H18.75V17.0625V18.75H17.0625H16.2188V20.1562V21H14.5312V20.1562V18.75H12.8438V20.1562V21H11.1562V20.1562V18.75H9.46875V20.1562V21H7.78125V20.1562V18.75H6.9375H5.25V17.0625V16.2188H3.84375H3V14.5312H3.84375H5.25V12.8438H3.84375H3V11.1562H3.84375H5.25V9.46875H3.84375H3V7.78125H3.84375H5.25V6.9375V5.25H6.9375H7.78125V3.84375V3H9.46875ZM17.0625 6.9375H6.9375V17.0625H17.0625V6.9375ZM15.5156 9.1875V9.75V14.25V14.8125H14.1094V14.25V9.75V9.1875H15.5156ZM11.1316 9.1875L11.2512 9.49688L13.3113 14.8125H11.8031L11.5289 14.1094H9.65859L9.38438 14.8125H7.87969L9.93984 9.49688L10.0594 9.1875H11.1316ZM10.5938 11.6977L10.2035 12.7031H10.984L10.5938 11.6977Z" fill="#077E88"/>
</g>
<defs>
<clipPath id="clip0_256_78906">
<rect width="18" height="18" fill="white" transform="translate(3 3)"/>
</clipPath>
</defs>
</svg>
