<svg width="72" height="72" viewBox="0 0 72 72" fill="none" xmlns="http://www.w3.org/2000/svg">
<g clip-path="url(#clip0_256_79976)">
<path d="M43.7859 23.8441C41.543 22.4004 38.8617 21.5625 36 21.5625C28.0207 21.5625 21.5625 28.0207 21.5625 36C21.5625 43.9793 28.0207 50.4375 36 50.4375C43.9793 50.4375 50.4375 43.9793 50.4375 36H56.625C56.625 46.0805 49.3934 54.4723 39.8285 56.2641C38.8875 55.2199 37.5211 54.5625 36 54.5625C34.4789 54.5625 33.1125 55.2199 32.1715 56.2641C23.857 54.7043 17.2957 48.143 15.7359 39.8285C16.7801 38.8875 17.4375 37.5211 17.4375 36C17.4375 34.4789 16.7801 33.1125 15.7359 32.1715C17.5277 22.6066 25.9195 15.375 36 15.375C40.5762 15.375 44.8043 16.8703 48.2332 19.3969L52.6418 14.9883C48.0785 11.3531 42.2906 9.1875 36 9.1875C22.684 9.1875 11.6238 18.907 9.53555 31.6301C8.0918 32.5453 7.125 34.1566 7.125 36C7.125 37.8434 8.0918 39.4547 9.53555 40.3699C11.3918 51.675 20.3121 60.6082 31.6301 62.4645C32.5453 63.9211 34.1566 64.875 36 64.875C37.8434 64.875 39.4547 63.9082 40.3699 62.4645C53.093 60.3762 62.8125 49.316 62.8125 36H69C69 54.2273 54.2273 69 36 69C17.7727 69 3 54.2273 3 36C3 17.7727 17.7727 3 36 3C44.0051 3 51.327 5.84883 57.0504 10.5797L62.6836 4.93359C63.8953 3.72188 65.8547 3.72188 67.0535 4.93359C68.2523 6.14531 68.2652 8.10469 67.0535 9.30352L43.5926 32.7645C44.018 33.757 44.25 34.8398 44.25 35.9871C44.25 40.5375 40.5504 44.2371 36 44.2371C31.4496 44.2371 27.75 40.5375 27.75 35.9871C27.75 31.4367 31.4496 27.7371 36 27.7371C37.1473 27.7371 38.2301 27.9691 39.2227 28.3945L43.7859 23.8313V23.8441Z" fill="#077E88"/>
</g>
<defs>
<clipPath id="clip0_256_79976">
<rect width="66" height="66" fill="white" transform="translate(3 3)"/>
</clipPath>
</defs>
</svg>
