<svg width="585" height="454" viewBox="0 0 585 454" fill="none" xmlns="http://www.w3.org/2000/svg">
<g clip-path="url(#clip0_256_79043)">
<path d="M-10.1252 463.168C-12.1024 465.145 -14.0797 465.145 -16.0569 463.168L-24.9546 454.274C-26.9318 452.297 -26.9318 450.32 -24.9546 448.344L-16.0569 439.45C-14.0797 437.473 -12.1024 437.473 -10.1252 439.45L-1.22751 448.344C0.749744 450.32 0.749744 452.297 -1.22751 454.274L-10.1252 463.168Z" fill="#EAEEF9"/>
<path d="M82.074 465.804C79.6574 468.22 77.2407 468.22 74.8241 465.804L63.9492 454.933C61.5326 452.518 61.5326 450.102 63.9492 447.686L74.8241 436.815C77.2407 434.399 79.6574 434.399 82.074 436.815L92.9489 447.686C95.3656 450.102 95.3656 452.518 92.9489 454.933L82.074 465.804Z" fill="#EAEEF9"/>
<path d="M174.271 468.441C171.415 471.296 168.559 471.296 165.703 468.441L152.851 455.593C149.995 452.738 149.995 449.883 152.851 447.028L165.703 434.181C168.559 431.326 171.415 431.326 174.271 434.181L187.123 447.028C189.979 449.883 189.979 452.738 187.123 455.593L174.271 468.441Z" fill="#EAEEF9"/>
<path d="M266.47 471.075C263.175 474.369 259.88 474.369 256.584 471.075L241.755 456.251C238.459 452.957 238.459 449.663 241.755 446.368L256.584 431.544C259.88 428.25 263.175 428.25 266.47 431.544L281.3 446.368C284.595 449.663 284.595 452.957 281.3 456.251L266.47 471.075Z" fill="#EAEEF9"/>
<path d="M358.668 473.71C354.933 477.443 351.198 477.443 347.463 473.71L330.657 456.909C326.922 453.176 326.922 449.442 330.657 445.709L347.463 428.908C351.198 425.175 354.933 425.175 358.668 428.908L375.474 445.709C379.209 449.442 379.209 453.176 375.474 456.909L358.668 473.71Z" fill="#EAEEF9"/>
<path d="M450.867 476.346C446.693 480.519 442.518 480.519 438.344 476.346L419.56 457.569C415.386 453.396 415.386 449.224 419.56 445.051L438.344 426.274C442.518 422.101 446.693 422.101 450.867 426.274L469.651 445.051C473.825 449.224 473.825 453.396 469.651 457.569L450.867 476.346Z" fill="#EAEEF9"/>
<path d="M543.066 478.981C538.452 483.592 533.839 483.592 529.225 478.981L508.464 458.227C503.851 453.615 503.851 449.003 508.464 444.391L529.225 423.637C533.839 419.026 538.452 419.026 543.066 423.637L563.827 444.391C568.441 449.003 568.441 453.615 563.827 458.227L543.066 478.981Z" fill="#EAEEF9"/>
<path d="M-10.1271 371.664C-12.1044 373.641 -14.0816 373.641 -16.0589 371.664L-24.9565 362.77C-26.9338 360.793 -26.9338 358.817 -24.9565 356.84L-16.0589 347.946C-14.0816 345.969 -12.1044 345.969 -10.1271 347.946L-1.22946 356.84C0.747791 358.817 0.747791 360.793 -1.22946 362.77L-10.1271 371.664Z" fill="#EAEEF9"/>
<path d="M82.074 374.299C79.6574 376.714 77.2407 376.714 74.8241 374.299L63.9492 363.428C61.5326 361.012 61.5326 358.596 63.9492 356.18L74.8241 345.309C77.2407 342.894 79.6574 342.894 82.074 345.309L92.9489 356.18C95.3656 358.596 95.3656 361.012 92.9489 363.428L82.074 374.299Z" fill="#EAEEF9"/>
<path d="M174.271 376.933C171.415 379.788 168.559 379.788 165.703 376.933L152.851 364.085C149.995 361.23 149.995 358.375 152.851 355.52L165.703 342.673C168.559 339.818 171.415 339.818 174.271 342.673L187.123 355.52C189.979 358.375 189.979 361.23 187.123 364.085L174.271 376.933Z" fill="#EAEEF9"/>
<path d="M266.47 379.568C263.175 382.863 259.88 382.863 256.584 379.568L241.755 364.744C238.459 361.45 238.459 358.156 241.755 354.862L256.584 340.038C259.88 336.743 263.175 336.743 266.47 340.038L281.3 354.862C284.595 358.156 284.595 361.45 281.3 364.744L266.47 379.568Z" fill="#EAEEF9"/>
<path d="M358.668 382.204C354.933 385.937 351.198 385.937 347.463 382.204L330.657 365.403C326.922 361.67 326.922 357.936 330.657 354.203L347.463 337.402C351.198 333.669 354.933 333.669 358.668 337.402L375.474 354.203C379.209 357.936 379.209 361.67 375.474 365.403L358.668 382.204Z" fill="#EAEEF9"/>
<path d="M450.867 384.839C446.693 389.012 442.518 389.012 438.344 384.839L419.56 366.062C415.386 361.889 415.386 357.717 419.56 353.544L438.344 334.767C442.518 330.594 446.693 330.594 450.867 334.767L469.651 353.544C473.825 357.717 473.825 361.889 469.651 366.062L450.867 384.839Z" fill="#EAEEF9"/>
<path d="M543.066 387.474C538.452 392.086 533.839 392.086 529.225 387.474L508.464 366.72C503.851 362.108 503.851 357.496 508.464 352.884L529.225 332.131C533.839 327.519 538.452 327.519 543.066 332.131L563.827 352.884C568.441 357.496 568.441 362.108 563.827 366.72L543.066 387.474Z" fill="#EAEEF9"/>
<path d="M-10.1271 280.157C-12.1044 282.134 -14.0816 282.134 -16.0589 280.157L-24.9565 271.263C-26.9338 269.286 -26.9338 267.31 -24.9565 265.333L-16.0589 256.439C-14.0816 254.462 -12.1044 254.462 -10.1271 256.439L-1.22946 265.333C0.747791 267.31 0.747791 269.286 -1.22946 271.263L-10.1271 280.157Z" fill="#EAEEF9"/>
<path d="M82.074 282.792C79.6574 285.207 77.2407 285.207 74.8241 282.792L63.9492 271.921C61.5326 269.505 61.5326 267.089 63.9492 264.673L74.8241 253.802C77.2407 251.387 79.6574 251.387 82.074 253.802L92.9489 264.673C95.3656 267.089 95.3656 269.505 92.9489 271.921L82.074 282.792Z" fill="#EAEEF9"/>
<path d="M174.271 285.426C171.415 288.281 168.559 288.281 165.703 285.426L152.851 272.579C149.995 269.724 149.995 266.869 152.851 264.014L165.703 251.166C168.559 248.311 171.415 248.311 174.271 251.166L187.123 264.014C189.979 266.869 189.979 269.724 187.123 272.579L174.271 285.426Z" fill="#EAEEF9"/>
<path d="M266.47 288.063C263.175 291.357 259.88 291.357 256.584 288.063L241.755 273.238C238.459 269.944 238.459 266.65 241.755 263.356L256.584 248.532C259.88 245.238 263.175 245.238 266.47 248.532L281.3 263.356C284.595 266.65 284.595 269.944 281.3 273.238L266.47 288.063Z" fill="#EAEEF9"/>
<path d="M358.668 290.697C354.933 294.43 351.198 294.43 347.463 290.697L330.657 273.896C326.922 270.163 326.922 266.429 330.657 262.696L347.463 245.895C351.198 242.162 354.933 242.162 358.668 245.895L375.474 262.696C379.209 266.429 379.209 270.163 375.474 273.896L358.668 290.697Z" fill="#EAEEF9"/>
<path d="M450.867 293.332C446.693 297.505 442.518 297.505 438.344 293.332L419.56 274.555C415.386 270.383 415.386 266.21 419.56 262.037L438.344 243.26C442.518 239.087 446.693 239.087 450.867 243.26L469.651 262.037C473.825 266.21 473.825 270.383 469.651 274.555L450.867 293.332Z" fill="#EAEEF9"/>
<path d="M543.064 295.97C538.45 300.582 533.837 300.582 529.223 295.97L508.462 275.216C503.849 270.604 503.849 265.992 508.462 261.38L529.223 240.627C533.837 236.015 538.45 236.015 543.064 240.627L563.825 261.38C568.439 265.992 568.439 270.604 563.825 275.216L543.064 295.97Z" fill="#EAEEF9"/>
<path d="M-10.1252 188.65C-12.1024 190.627 -14.0797 190.627 -16.0569 188.65L-24.9546 179.756C-26.9318 177.779 -26.9318 175.803 -24.9546 173.826L-16.0569 164.932C-14.0797 162.955 -12.1024 162.955 -10.1252 164.932L-1.22751 173.826C0.749744 175.803 0.749744 177.779 -1.22751 179.756L-10.1252 188.65Z" fill="#EAEEF9"/>
<path d="M82.074 191.285C79.6574 193.701 77.2407 193.701 74.8241 191.285L63.9492 180.414C61.5326 177.998 61.5326 175.582 63.9492 173.167L74.8241 162.296C77.2407 159.88 79.6574 159.88 82.074 162.296L92.9489 173.167C95.3656 175.582 95.3656 177.998 92.9489 180.414L82.074 191.285Z" fill="#EAEEF9"/>
<path d="M174.271 193.921C171.415 196.776 168.559 196.776 165.703 193.921L152.851 181.074C149.995 178.219 149.995 175.364 152.851 172.509L165.703 159.661C168.559 156.806 171.415 156.806 174.271 159.661L187.123 172.509C189.979 175.364 189.979 178.219 187.123 181.074L174.271 193.921Z" fill="#EAEEF9"/>
<path d="M266.47 196.556C263.175 199.85 259.88 199.85 256.584 196.556L241.755 181.732C238.459 178.437 238.459 175.143 241.755 171.849L256.584 157.025C259.88 153.731 263.175 153.731 266.47 157.025L281.3 171.849C284.595 175.143 284.595 178.437 281.3 181.732L266.47 196.556Z" fill="#EAEEF9"/>
<path d="M358.668 199.19C354.933 202.924 351.198 202.924 347.463 199.19L330.657 182.39C326.922 178.656 326.922 174.923 330.657 171.189L347.463 154.389C351.198 150.655 354.933 150.655 358.668 154.389L375.474 171.189C379.209 174.923 379.209 178.656 375.474 182.39L358.668 199.19Z" fill="#EAEEF9"/>
<path d="M450.867 201.828C446.693 206 442.518 206 438.344 201.828L419.56 183.05C415.386 178.878 415.386 174.705 419.56 170.532L438.344 151.755C442.518 147.583 446.693 147.583 450.867 151.755L469.651 170.532C473.825 174.705 473.825 178.878 469.651 183.05L450.867 201.828Z" fill="#EAEEF9"/>
<path d="M543.064 204.463C538.45 209.075 533.837 209.075 529.223 204.463L508.462 183.709C503.849 179.097 503.849 174.485 508.462 169.874L529.223 149.12C533.837 144.508 538.45 144.508 543.064 149.12L563.825 169.874C568.439 174.485 568.439 179.097 563.825 183.709L543.064 204.463Z" fill="#EAEEF9"/>
<path d="M-10.1252 97.1426C-12.1024 99.1191 -14.0797 99.1191 -16.0569 97.1426L-24.9546 88.2481C-26.9318 86.2716 -26.9318 84.2951 -24.9546 82.3185L-16.0569 73.4241C-14.0797 71.4476 -12.1024 71.4476 -10.1252 73.4241L-1.22751 82.3185C0.749744 84.2951 0.749744 86.2716 -1.22751 88.2481L-10.1252 97.1426Z" fill="#EAEEF9"/>
<path d="M82.074 99.779C79.6574 102.195 77.2407 102.195 74.8241 99.779L63.9492 88.908C61.5326 86.4923 61.5326 84.0765 63.9492 81.6607L74.8241 70.7898C77.2407 68.374 79.6574 68.374 82.074 70.7898L92.9489 81.6607C95.3656 84.0765 95.3656 86.4923 92.9489 88.908L82.074 99.779Z" fill="#EAEEF9"/>
<path d="M174.271 102.413C171.415 105.268 168.559 105.268 165.703 102.413L152.851 89.5659C149.995 86.7109 149.995 83.8559 152.851 81.0009L165.703 68.1534C168.559 65.2984 171.415 65.2984 174.271 68.1534L187.123 81.0009C189.979 83.8559 189.979 86.7109 187.123 89.5659L174.271 102.413Z" fill="#EAEEF9"/>
<path d="M266.47 105.049C263.175 108.343 259.88 108.343 256.584 105.049L241.755 90.2248C238.459 86.9306 238.459 83.6364 241.755 80.3421L256.584 65.5181C259.88 62.2238 263.175 62.2238 266.47 65.5181L281.3 80.3421C284.595 83.6364 284.595 86.9306 281.3 90.2248L266.47 105.049Z" fill="#EAEEF9"/>
<path d="M358.668 107.686C354.933 111.42 351.198 111.42 347.463 107.686L330.657 90.8856C326.922 87.1522 326.922 83.4187 330.657 79.6852L347.463 62.8847C351.198 59.1512 354.933 59.1512 358.668 62.8847L375.474 79.6852C379.209 83.4187 379.209 87.1521 375.474 90.8856L358.668 107.686Z" fill="#EAEEF9"/>
<path d="M450.867 110.321C446.693 114.493 442.518 114.493 438.344 110.321L419.56 91.5436C415.386 87.3709 415.386 83.1982 419.56 79.0255L438.344 60.2484C442.518 56.0757 446.693 56.0757 450.867 60.2484L469.651 79.0255C473.825 83.1982 473.825 87.3709 469.651 91.5436L450.867 110.321Z" fill="#EAEEF9"/>
<path d="M543.064 112.956C538.45 117.568 533.837 117.568 529.223 112.956L508.462 92.2024C503.849 87.5905 503.849 82.9786 508.462 78.3667L529.223 57.613C533.837 53.0011 538.45 53.0011 543.064 57.613L563.825 78.3667C568.439 82.9786 568.439 87.5905 563.825 92.2024L543.064 112.956Z" fill="#EAEEF9"/>
<path d="M36.3402 420.199C33.8961 422.642 31.4612 422.642 29.017 420.199L18.0323 409.218C15.5882 406.775 15.5882 404.341 18.0323 401.898L29.017 390.917C31.4611 388.474 33.8961 388.474 36.3402 390.917L47.325 401.898C49.7691 404.341 49.7691 406.775 47.325 409.218L36.3402 420.199Z" fill="#EAEEF9"/>
<path d="M128.61 423.127C125.681 426.055 122.751 426.055 119.822 423.127L106.64 409.95C103.711 407.022 103.711 404.094 106.64 401.166L119.822 387.989C122.751 385.06 125.681 385.06 128.61 387.989L141.791 401.166C144.721 404.094 144.721 407.022 141.791 409.95L128.61 423.127Z" fill="#EAEEF9"/>
<path d="M220.883 426.054C217.469 429.468 214.045 429.468 210.631 426.054L195.252 410.681C191.838 407.268 191.838 403.846 195.252 400.433L210.631 385.06C214.045 381.646 217.469 381.646 220.883 385.06L236.262 400.433C239.676 403.846 239.676 407.268 236.262 410.681L220.883 426.054Z" fill="#EAEEF9"/>
<path d="M313.154 428.983C309.245 432.89 305.346 432.89 301.437 428.983L283.861 411.413C279.953 407.506 279.953 403.608 283.861 399.701L301.437 382.131C305.346 378.224 309.245 378.224 313.154 382.131L330.729 399.701C334.638 403.608 334.638 407.506 330.729 411.413L313.154 428.983Z" fill="#EAEEF9"/>
<path d="M405.427 431.911C401.033 436.303 396.64 436.303 392.246 431.911L372.473 412.145C368.079 407.753 368.079 403.361 372.473 398.969L392.246 379.203C396.64 374.811 401.033 374.811 405.427 379.203L425.2 398.969C429.594 403.361 429.594 407.753 425.2 412.145L405.427 431.911Z" fill="#EAEEF9"/>
<path d="M497.701 434.838C492.822 439.715 487.934 439.715 483.055 434.838L461.085 412.877C456.206 407.999 456.206 403.113 461.085 398.236L483.055 376.274C487.934 371.397 492.822 371.397 497.701 376.274L519.67 398.236C524.549 403.113 524.549 407.999 519.67 412.877L497.701 434.838Z" fill="#EAEEF9"/>
<path d="M589.97 437.767C584.596 443.139 579.232 443.139 573.859 437.767L549.692 413.61C544.319 408.238 544.319 402.876 549.692 397.505L573.859 373.347C579.232 367.975 584.596 367.975 589.97 373.347L614.136 397.505C619.509 402.876 619.509 408.238 614.136 413.61L589.97 437.767Z" fill="#EAEEF9"/>
<path d="M128.61 331.619C125.681 334.547 122.751 334.547 119.822 331.619L106.64 318.442C103.711 315.514 103.711 312.586 106.64 309.658L119.822 296.481C122.751 293.553 125.681 293.553 128.61 296.481L141.791 309.658C144.721 312.586 144.721 315.514 141.791 318.442L128.61 331.619Z" fill="#EAEEF9"/>
<path d="M220.883 334.548C217.469 337.961 214.045 337.961 210.631 334.548L195.252 319.174C191.838 315.761 191.838 312.339 195.252 308.926L210.631 293.553C214.045 290.139 217.469 290.139 220.883 293.553L236.262 308.926C239.676 312.339 239.676 315.761 236.262 319.174L220.883 334.548Z" fill="#EAEEF9"/>
<path d="M313.156 337.476C309.247 341.383 305.348 341.383 301.439 337.476L283.863 319.907C279.954 315.999 279.954 312.101 283.863 308.194L301.439 290.624C305.348 286.717 309.247 286.717 313.156 290.624L330.731 308.194C334.64 312.101 334.64 315.999 330.731 319.907L313.156 337.476Z" fill="#EAEEF9"/>
<path d="M405.427 340.404C401.033 344.796 396.64 344.796 392.246 340.404L372.473 320.639C368.079 316.246 368.079 311.854 372.473 307.462L392.246 287.696C396.64 283.304 401.033 283.304 405.427 287.696L425.2 307.462C429.594 311.854 429.594 316.246 425.2 320.639L405.427 340.404Z" fill="#EAEEF9"/>
<path d="M497.701 343.331C492.822 348.209 487.934 348.209 483.055 343.331L461.085 321.37C456.206 316.492 456.206 311.606 461.085 306.729L483.055 284.767C487.934 279.89 492.822 279.89 497.701 284.767L519.67 306.729C524.549 311.606 524.549 316.492 519.67 321.37L497.701 343.331Z" fill="#EAEEF9"/>
<path d="M589.971 346.26C584.598 351.632 579.234 351.632 573.861 346.26L549.694 322.103C544.321 316.731 544.321 311.369 549.694 305.998L573.861 281.84C579.234 276.469 584.598 276.469 589.971 281.84L614.138 305.998C619.511 311.369 619.511 316.731 614.138 322.103L589.971 346.26Z" fill="#EAEEF9"/>
<path d="M36.3402 237.184C33.8961 239.627 31.4612 239.627 29.017 237.184L18.0323 226.203C15.5882 223.76 15.5882 221.326 18.0323 218.883L29.017 207.902C31.4611 205.459 33.8961 205.459 36.3402 207.902L47.325 218.883C49.7691 221.326 49.7691 223.76 47.325 226.203L36.3402 237.184Z" fill="#EAEEF9"/>
<path d="M128.61 240.112C125.681 243.041 122.751 243.041 119.822 240.112L106.64 226.935C103.711 224.007 103.711 221.079 106.64 218.151L119.822 204.974C122.751 202.046 125.681 202.046 128.61 204.974L141.791 218.151C144.721 221.079 144.721 224.007 141.791 226.935L128.61 240.112Z" fill="#EAEEF9"/>
<path d="M220.883 243.041C217.469 246.454 214.045 246.454 210.631 243.041L195.252 227.668C191.838 224.254 191.838 220.832 195.252 217.419L210.631 202.046C214.045 198.633 217.469 198.633 220.883 202.046L236.262 217.419C239.676 220.832 239.676 224.254 236.262 227.668L220.883 243.041Z" fill="#EAEEF9"/>
<path d="M313.156 245.969C309.247 249.876 305.348 249.876 301.439 245.969L283.863 228.4C279.954 224.492 279.954 220.594 283.863 216.687L301.439 199.118C305.348 195.21 309.247 195.21 313.156 199.118L330.731 216.687C334.64 220.594 334.64 224.492 330.731 228.4L313.156 245.969Z" fill="#EAEEF9"/>
<path d="M405.427 248.896C401.033 253.289 396.64 253.289 392.246 248.896L372.473 229.131C368.079 224.739 368.079 220.346 372.473 215.954L392.246 196.189C396.64 191.796 401.033 191.796 405.427 196.189L425.2 215.954C429.594 220.346 429.594 224.739 425.2 229.131L405.427 248.896Z" fill="#EAEEF9"/>
<path d="M497.701 251.826C492.822 256.704 487.934 256.704 483.055 251.826L461.085 229.865C456.206 224.988 456.206 220.101 461.085 215.224L483.055 193.262C487.934 188.385 492.822 188.385 497.701 193.262L519.67 215.224C524.549 220.101 524.549 224.988 519.67 229.865L497.701 251.826Z" fill="#EAEEF9"/>
<path d="M589.971 254.754C584.598 260.125 579.234 260.125 573.861 254.754L549.694 230.596C544.321 225.225 544.321 219.862 549.694 214.491L573.861 190.333C579.234 184.962 584.598 184.962 589.971 190.333L614.138 214.491C619.511 219.862 619.511 225.225 614.138 230.596L589.971 254.754Z" fill="#EAEEF9"/>
<path d="M128.61 148.606C125.681 151.534 122.751 151.534 119.822 148.606L106.64 135.429C103.711 132.5 103.711 129.572 106.64 126.644L119.822 113.467C122.751 110.539 125.681 110.539 128.61 113.467L141.791 126.644C144.721 129.572 144.721 132.5 141.791 135.429L128.61 148.606Z" fill="#EAEEF9"/>
<path d="M220.883 151.535C217.469 154.948 214.045 154.948 210.631 151.535L195.252 136.162C191.838 132.749 191.838 129.326 195.252 125.913L210.631 110.54C214.045 107.127 217.469 107.127 220.883 110.54L236.262 125.913C239.676 129.326 239.676 132.749 236.262 136.162L220.883 151.535Z" fill="#EAEEF9"/>
<path d="M313.154 154.463C309.245 158.37 305.346 158.37 301.437 154.463L283.861 136.894C279.953 132.986 279.953 129.088 283.861 125.181L301.437 107.612C305.346 103.704 309.245 103.704 313.154 107.612L330.729 125.181C334.638 129.088 334.638 132.986 330.729 136.894L313.154 154.463Z" fill="#EAEEF9"/>
<path d="M405.427 157.391C401.033 161.784 396.64 161.784 392.246 157.391L372.473 137.626C368.079 133.234 368.079 128.841 372.473 124.449L392.246 104.684C396.64 100.291 401.033 100.291 405.427 104.684L425.2 124.449C429.594 128.841 429.594 133.234 425.2 137.626L405.427 157.391Z" fill="#EAEEF9"/>
<path d="M497.697 160.321C492.818 165.198 487.93 165.198 483.051 160.321L461.081 138.359C456.202 133.482 456.202 128.595 461.081 123.718L483.051 101.756C487.93 96.8792 492.818 96.8792 497.697 101.756L519.666 123.718C524.546 128.595 524.546 133.482 519.666 138.359L497.697 160.321Z" fill="#EAEEF9"/>
<path d="M589.971 163.248C584.598 168.619 579.234 168.619 573.861 163.248L549.694 139.09C544.321 133.719 544.321 128.356 549.694 122.985L573.861 98.8273C579.234 93.4558 584.598 93.4558 589.971 98.8273L614.138 122.985C619.511 128.356 619.511 133.719 614.138 139.09L589.971 163.248Z" fill="#EAEEF9"/>
<path d="M36.3402 54.1705C33.8961 56.6137 31.4612 56.6137 29.017 54.1705L18.0323 43.1897C15.5882 40.7465 15.5882 38.3125 18.0323 35.8692L29.017 24.8885C31.4611 22.4452 33.8961 22.4452 36.3402 24.8885L47.325 35.8692C49.7691 38.3125 49.7691 40.7465 47.325 43.1897L36.3402 54.1705Z" fill="#EAEEF9"/>
<path d="M128.614 57.0997C125.684 60.0279 122.755 60.0279 119.826 57.0997L106.644 43.9228C103.715 40.9946 103.715 38.0664 106.644 35.1382L119.826 21.9613C122.755 19.033 125.684 19.033 128.614 21.9613L141.795 35.1382C144.725 38.0664 144.725 40.9946 141.795 43.9228L128.614 57.0997Z" fill="#EAEEF9"/>
<path d="M220.883 60.028C217.469 63.4412 214.045 63.4412 210.631 60.028L195.252 44.6549C191.838 41.2417 191.838 37.8193 195.252 34.4061L210.631 19.0331C214.045 15.6199 217.469 15.6199 220.883 19.0331L236.262 34.4061C239.676 37.8193 239.676 41.2417 236.262 44.6549L220.883 60.028Z" fill="#EAEEF9"/>
<path d="M313.154 62.9572C309.245 66.8645 305.346 66.8645 301.437 62.9572L283.861 45.3879C279.953 41.4806 279.953 37.5825 283.861 33.6752L301.437 16.1059C305.346 12.1985 309.245 12.1985 313.154 16.1059L330.729 33.6751C334.638 37.5825 334.638 41.4806 330.729 45.3879L313.154 62.9572Z" fill="#EAEEF9"/>
<path d="M405.427 65.8855C401.033 70.2778 396.64 70.2778 392.246 65.8855L372.473 46.1201C368.079 41.7278 368.079 37.3355 372.473 32.9431L392.246 13.1778C396.64 8.78548 401.033 8.78548 405.427 13.1778L425.2 32.9431C429.594 37.3355 429.594 41.7278 425.2 46.1201L405.427 65.8855Z" fill="#EAEEF9"/>
<path d="M497.697 68.8137C492.818 73.691 487.93 73.691 483.051 68.8137L461.081 46.8522C456.202 41.9749 456.202 37.0885 461.081 32.2112L483.051 10.2497C487.93 5.37237 492.818 5.37237 497.697 10.2497L519.666 32.2112C524.546 37.0885 524.546 41.9749 519.666 46.8522L497.697 68.8137Z" fill="#EAEEF9"/>
<path d="M589.971 71.741C584.598 77.1124 579.234 77.1124 573.861 71.741L549.694 47.5832C544.321 42.2118 544.321 36.8496 549.694 31.4781L573.861 7.32043C579.234 1.949 584.598 1.949 589.971 7.32043L614.138 31.4781C619.511 36.8496 619.511 42.2118 614.138 47.5832L589.971 71.741Z" fill="#EAEEF9"/>
</g>
<defs>
<clipPath id="clip0_256_79043">
<rect width="454" height="585" fill="white" transform="translate(0 454) rotate(-90)"/>
</clipPath>
</defs>
</svg>
