<svg width="32" height="32" viewBox="0 0 32 32" fill="none" xmlns="http://www.w3.org/2000/svg">
<g clip-path="url(#clip0_256_79531)">
<path d="M15 17V28.5H17V24H19.1688C19.5813 25.1625 20.6938 26 22 26C23.6562 26 25 24.6562 25 23C25 21.3438 23.6562 20 22 20C20.6938 20 19.5813 20.8375 19.1688 22H17V10H20C20.55 10 21 10.45 21 11V11.1687C19.8375 11.5813 19 12.6938 19 14C19 15.6562 20.3438 17 22 17C23.6562 17 25 15.6562 25 14C25 12.6938 24.1625 11.5813 23 11.1687V11C23 9.34375 21.6562 8 20 8H17V3.5H15V8H12.8313C12.4188 6.8375 11.3063 6 10 6C8.34375 6 7 7.34375 7 9C7 10.6562 8.34375 12 10 12C11.3063 12 12.4188 11.1625 12.8313 10H15V15H12C10.3438 15 9 16.3438 9 18V20.1688C7.8375 20.5813 7 21.6938 7 23C7 24.6562 8.34375 26 10 26C11.6562 26 13 24.6562 13 23C13 21.6938 12.1625 20.5813 11 20.1688V18C11 17.45 11.45 17 12 17H15ZM11 9C11 9.26522 10.8946 9.51957 10.7071 9.70711C10.5196 9.89464 10.2652 10 10 10C9.73478 10 9.48043 9.89464 9.29289 9.70711C9.10536 9.51957 9 9.26522 9 9C9 8.73478 9.10536 8.48043 9.29289 8.29289C9.48043 8.10536 9.73478 8 10 8C10.2652 8 10.5196 8.10536 10.7071 8.29289C10.8946 8.48043 11 8.73478 11 9ZM22 15C21.7348 15 21.4804 14.8946 21.2929 14.7071C21.1054 14.5196 21 14.2652 21 14C21 13.7348 21.1054 13.4804 21.2929 13.2929C21.4804 13.1054 21.7348 13 22 13C22.2652 13 22.5196 13.1054 22.7071 13.2929C22.8946 13.4804 23 13.7348 23 14C23 14.2652 22.8946 14.5196 22.7071 14.7071C22.5196 14.8946 22.2652 15 22 15ZM11 23C11 23.2652 10.8946 23.5196 10.7071 23.7071C10.5196 23.8946 10.2652 24 10 24C9.73478 24 9.48043 23.8946 9.29289 23.7071C9.10536 23.5196 9 23.2652 9 23C9 22.7348 9.10536 22.4804 9.29289 22.2929C9.48043 22.1054 9.73478 22 10 22C10.2652 22 10.5196 22.1054 10.7071 22.2929C10.8946 22.4804 11 22.7348 11 23ZM23 23C23 23.2652 22.8946 23.5196 22.7071 23.7071C22.5196 23.8946 22.2652 24 22 24C21.7348 24 21.4804 23.8946 21.2929 23.7071C21.1054 23.5196 21 23.2652 21 23C21 22.7348 21.1054 22.4804 21.2929 22.2929C21.4804 22.1054 21.7348 22 22 22C22.2652 22 22.5196 22.1054 22.7071 22.2929C22.8946 22.4804 23 22.7348 23 23Z" fill="#2A57BE"/>
<path opacity="0.4" d="M15 3.5C15 1.56875 13.4312 0 11.5 0C9.69375 0 8.20625 1.36875 8.01875 3.11875C6.2875 3.55625 5 5.13125 5 7C5 7.375 5.05 7.74375 5.15 8.0875C3.35 8.48125 2 10.0813 2 12C2 12.9375 2.31875 13.8 2.8625 14.4812C1.16875 15.2812 0 17.0063 0 19C0 21.1375 1.3375 22.9625 3.225 23.675C3.08125 24.0875 3 24.5375 3 25C3 27.2062 4.79375 29 7 29C7.35 29 7.69375 28.9562 8.01875 28.8687C8.2 30.6313 9.69375 32 11.5 32C13.4312 32 15 30.4312 15 28.5V17H12C11.45 17 11 17.45 11 18V20.1688C12.1625 20.5813 13 21.6938 13 23C13 24.6562 11.6562 26 10 26C8.34375 26 7 24.6562 7 23C7 21.6938 7.8375 20.5813 9 20.1688V18C9 16.3438 10.3438 15 12 15H15V10H12.8313C12.4187 11.1625 11.3062 12 10 12C8.34375 12 7 10.6562 7 9C7 7.34375 8.34375 6 10 6C11.3062 6 12.4187 6.8375 12.8313 8H15V3.5ZM17 10V22H19.1688C19.5813 20.8375 20.6938 20 22 20C23.6562 20 25 21.3438 25 23C25 24.6562 23.6562 26 22 26C20.6938 26 19.5813 25.1625 19.1688 24H17V28.5C17 30.4312 18.5688 32 20.5 32C22.3062 32 23.7938 30.6313 23.9813 28.8687C24.3063 28.9562 24.65 29 25 29C27.2062 29 29 27.2062 29 25C29 24.5375 28.9187 24.0875 28.775 23.675C30.6625 22.9625 32 21.1375 32 19C32 17.0063 30.8313 15.2812 29.1375 14.4812C29.6813 13.8 30 12.9375 30 12C30 10.0813 28.65 8.48125 26.85 8.0875C26.95 7.74375 27 7.375 27 7C27 5.13125 25.7125 3.55625 23.9813 3.11875C23.7875 1.36875 22.3062 0 20.5 0C18.5688 0 17 1.56875 17 3.5V8H20C21.6562 8 23 9.34375 23 11V11.1687C24.1625 11.5813 25 12.6938 25 14C25 15.6562 23.6562 17 22 17C20.3438 17 19 15.6562 19 14C19 12.6938 19.8375 11.5813 21 11.1687V11C21 10.45 20.55 10 20 10H17Z" fill="#2A57BE"/>
</g>
<defs>
<clipPath id="clip0_256_79531">
<rect width="32" height="32" fill="white"/>
</clipPath>
</defs>
</svg>
