<svg width="24" height="26" viewBox="0 0 24 26" fill="none" xmlns="http://www.w3.org/2000/svg">
<g clip-path="url(#clip0_256_79564)">
<path d="M19.3125 4.875C17.9668 4.875 16.875 5.9668 16.875 7.3125V21.9375C16.875 23.2832 17.9668 24.375 19.3125 24.375H20.9375C22.2832 24.375 23.375 23.2832 23.375 21.9375V7.3125C23.375 5.9668 22.2832 4.875 20.9375 4.875H19.3125ZM3.0625 11.375C1.7168 11.375 0.625 12.4668 0.625 13.8125V21.9375C0.625 23.2832 1.7168 24.375 3.0625 24.375H4.6875C6.0332 24.375 7.125 23.2832 7.125 21.9375V13.8125C7.125 12.4668 6.0332 11.375 4.6875 11.375H3.0625Z" fill="#2A57BE"/>
<path opacity="0.4" d="M8.75 4.0625C8.75 2.7168 9.8418 1.625 11.1875 1.625H12.8125C14.1582 1.625 15.25 2.7168 15.25 4.0625V21.9375C15.25 23.2832 14.1582 24.375 12.8125 24.375H11.1875C9.8418 24.375 8.75 23.2832 8.75 21.9375V4.0625Z" fill="#2A57BE"/>
</g>
<defs>
<clipPath id="clip0_256_79564">
<rect width="22.75" height="26" fill="white" transform="translate(0.625)"/>
</clipPath>
</defs>
</svg>
