<svg width="118" height="91" viewBox="0 0 118 91" fill="none" xmlns="http://www.w3.org/2000/svg">
<g opacity="0.2">
<path d="M75.7412 23.8519C72.1828 25.3805 67.9975 24.474 65.4347 21.6303C61.36 17.0803 55.3678 14.2187 48.675 14.2187C36.4509 14.2187 26.55 23.7631 26.55 35.5469V35.5824C26.55 39.2082 24.19 42.4252 20.65 43.6338C13.7544 45.9799 8.85 52.3072 8.85 59.7187C8.85 69.1387 16.7781 76.7812 26.55 76.7812H92.925H93.5334C93.6441 76.7635 93.7731 76.7635 93.8838 76.7457C102.402 76.2658 109.15 69.4586 109.15 61.1406C109.15 54.7422 105.168 49.2146 99.415 46.7975C95.7091 45.2334 93.5888 41.4654 94.2341 37.6086C94.3447 36.9332 94.4 36.24 94.4 35.5291C94.4 28.4553 88.4631 22.7322 81.125 22.7322C79.1891 22.7322 77.3637 23.1232 75.7412 23.8342V23.8519ZM94.4 85.2769V85.3125H92.925H85.55H26.55C11.8922 85.3125 0 73.8486 0 59.7187C0 48.5748 7.39344 39.1016 17.7 35.5824V35.5469C17.7 19.0531 31.565 5.6875 48.675 5.6875C58.0597 5.6875 66.4487 9.7043 72.1459 16.0494C74.8931 14.8764 77.9169 14.2187 81.125 14.2187C93.3491 14.2187 103.25 23.7631 103.25 35.5469C103.25 36.7199 103.158 37.8574 102.973 38.9771C111.823 42.7096 118 51.223 118 61.1406C118 74.0086 107.564 84.5305 94.4 85.2769Z" fill="#51596A"/>
</g>
</svg>
