<svg width="34" height="26" viewBox="0 0 34 26" fill="none" xmlns="http://www.w3.org/2000/svg">
<g clip-path="url(#clip0_256_79547)">
<path d="M7.25 15.4375C7.25 14.9906 7.61562 14.625 8.0625 14.625H17.8125C18.2594 14.625 18.625 14.9906 18.625 15.4375C18.625 15.8844 18.2594 16.25 17.8125 16.25H8.0625C7.61562 16.25 7.25 15.8844 7.25 15.4375ZM12.9375 17.875C13.3844 17.875 13.75 18.2406 13.75 18.6875C13.75 19.1344 13.3844 19.5 12.9375 19.5H8.0625C7.61562 19.5 7.25 19.1344 7.25 18.6875C7.25 18.2406 7.61562 17.875 8.0625 17.875H12.9375ZM25.9375 17.875C26.3844 17.875 26.75 18.2406 26.75 18.6875C26.75 19.1344 26.3844 19.5 25.9375 19.5H16.1875C15.7406 19.5 15.375 19.1344 15.375 18.6875C15.375 18.2406 15.7406 17.875 16.1875 17.875H25.9375ZM21.0625 14.625H25.9375C26.3844 14.625 26.75 14.9906 26.75 15.4375C26.75 15.8844 26.3844 16.25 25.9375 16.25H21.0625C20.6156 16.25 20.25 15.8844 20.25 15.4375C20.25 14.9906 20.6156 14.625 21.0625 14.625Z" fill="#2A57BE"/>
<path opacity="0.4" d="M0.75 17.0625C0.75 21.0996 4.02539 24.375 8.0625 24.375H26.75C30.3402 24.375 33.25 21.4652 33.25 17.875C33.25 14.7316 31.0156 12.1063 28.05 11.507C28.2582 10.9637 28.375 10.3695 28.375 9.75C28.375 7.05859 26.1914 4.875 23.5 4.875C22.4996 4.875 21.5652 5.17969 20.7934 5.69766C19.3867 3.26016 16.7613 1.625 13.75 1.625C9.26094 1.625 5.625 5.26094 5.625 9.75C5.625 9.88711 5.63008 10.0242 5.63516 10.1613C2.79141 11.1617 0.75 13.8734 0.75 17.0625ZM26.75 18.6875C26.75 19.1344 26.3844 19.5 25.9375 19.5H16.1875C15.7406 19.5 15.375 19.1344 15.375 18.6875C15.375 18.2406 15.7406 17.875 16.1875 17.875H25.9375C26.3844 17.875 26.75 18.2406 26.75 18.6875ZM12.9375 17.875C13.3844 17.875 13.75 18.2406 13.75 18.6875C13.75 19.1344 13.3844 19.5 12.9375 19.5H8.0625C7.61562 19.5 7.25 19.1344 7.25 18.6875C7.25 18.2406 7.61562 17.875 8.0625 17.875H12.9375ZM7.25 15.4375C7.25 14.9906 7.61562 14.625 8.0625 14.625H17.8125C18.2594 14.625 18.625 14.9906 18.625 15.4375C18.625 15.8844 18.2594 16.25 17.8125 16.25H8.0625C7.61562 16.25 7.25 15.8844 7.25 15.4375ZM21.0625 14.625H25.9375C26.3844 14.625 26.75 14.9906 26.75 15.4375C26.75 15.8844 26.3844 16.25 25.9375 16.25H21.0625C20.6156 16.25 20.25 15.8844 20.25 15.4375C20.25 14.9906 20.6156 14.625 21.0625 14.625Z" fill="#2A57BE"/>
</g>
<defs>
<clipPath id="clip0_256_79547">
<rect width="32.5" height="26" fill="white" transform="translate(0.75)"/>
</clipPath>
</defs>
</svg>
