<svg width="34" height="26" viewBox="0 0 34 26" fill="none" xmlns="http://www.w3.org/2000/svg">
<g clip-path="url(#clip0_256_79572)">
<path d="M24.7905 6.16479C24.1558 6.79956 24.1558 7.83042 24.7905 8.46519L29.3253 13L24.7855 17.5398C24.1507 18.1746 24.1507 19.2054 24.7855 19.8402C25.4202 20.475 26.4511 20.475 27.0858 19.8402L32.7733 14.1527C33.4081 13.5179 33.4081 12.4871 32.7733 11.8523L27.0858 6.16479C26.4511 5.53003 25.4202 5.53003 24.7855 6.16479H24.7905ZM9.21592 6.16479C8.58115 5.53003 7.55029 5.53003 6.91553 6.16479L1.22803 11.8523C0.593262 12.4871 0.593262 13.5179 1.22803 14.1527L6.91553 19.8402C7.55029 20.475 8.58115 20.475 9.21592 19.8402C9.85069 19.2054 9.85069 18.1746 9.21592 17.5398L4.67607 13L9.21592 8.46011C9.85069 7.82534 9.85069 6.79448 9.21592 6.15972V6.16479Z" fill="#2A57BE"/>
<path opacity="0.4" d="M20.6977 0.0610005C19.8344 -0.187828 18.9356 0.314907 18.6867 1.17819L12.1867 23.9282C11.9379 24.7915 12.4406 25.6903 13.3039 25.9391C14.1672 26.188 15.066 25.6852 15.3149 24.8219L21.8149 2.07194C22.0637 1.20866 21.561 0.309829 20.6977 0.0610005Z" fill="#2A57BE"/>
</g>
<defs>
<clipPath id="clip0_256_79572">
<rect width="32.5" height="26" fill="white" transform="translate(0.75)"/>
</clipPath>
</defs>
</svg>
