<svg width="72" height="72" viewBox="0 0 72 72" fill="none" xmlns="http://www.w3.org/2000/svg">
<g clip-path="url(#clip0_256_79966)">
<path d="M44.25 10V22H27.75V10H44.25ZM27.75 4C25.0172 4 22.8 6.6875 22.8 10V22C22.8 25.3125 25.0172 28 27.75 28H33.525V33H5.475C4.10344 33 3 34.3375 3 36C3 37.6625 4.10344 39 5.475 39H17.025V44H11.25C8.51719 44 6.3 46.6875 6.3 50V62C6.3 65.3125 8.51719 68 11.25 68H27.75C30.4828 68 32.7 65.3125 32.7 62V50C32.7 46.6875 30.4828 44 27.75 44H21.975V39H50.025V44H44.25C41.5172 44 39.3 46.6875 39.3 50V62C39.3 65.3125 41.5172 68 44.25 68H60.75C63.4828 68 65.7 65.3125 65.7 62V50C65.7 46.6875 63.4828 44 60.75 44H54.975V39H66.525C67.8966 39 69 37.6625 69 36C69 34.3375 67.8966 33 66.525 33H38.475V28H44.25C46.9828 28 49.2 25.3125 49.2 22V10C49.2 6.6875 46.9828 4 44.25 4H27.75ZM11.25 50H27.75V62H11.25V50ZM60.75 50V62H44.25V50H60.75Z" fill="#077E88"/>
</g>
<defs>
<clipPath id="clip0_256_79966">
<rect width="66" height="64" fill="white" transform="translate(3 4)"/>
</clipPath>
</defs>
</svg>
