<svg width="24" height="25" viewBox="0 0 24 25" fill="none" xmlns="http://www.w3.org/2000/svg">
<g clip-path="url(#clip0_256_79999)">
<path d="M24 4.29065C24 2.08151 22.2091 0.290649 20 0.290649H4C1.79086 0.290649 0 2.08151 0 4.29065V20.2906C0 22.4998 1.79086 24.2906 4 24.2906H20C22.2091 24.2906 24 22.4998 24 20.2906V4.29065ZM18.0536 9.77279L11.1964 16.6299L10.2857 17.5406L9.375 16.6299L5.94643 13.2014L5.03571 12.2906L6.85714 10.4746L7.76786 11.3853L10.2857 13.9031L16.2321 7.95136L17.1429 7.04065L18.9589 8.86208L18.0482 9.77279H18.0536Z" fill="#077E88"/>
</g>
<defs>
<clipPath id="clip0_256_79999">
<rect width="24" height="24" fill="white" transform="translate(0 0.5)"/>
</clipPath>
</defs>
</svg>
