<svg width="24" height="24" viewBox="0 0 24 24" fill="none" xmlns="http://www.w3.org/2000/svg">
<g clip-path="url(#clip0_256_78911)">
<path d="M18.0625 6.02344V9.1418C17.5949 9.39492 16.9516 9.64102 16.1359 9.84141C14.9441 10.1367 13.4746 10.3125 11.875 10.3125C10.2754 10.3125 8.80586 10.1367 7.61406 9.84141C6.79844 9.64102 6.15508 9.39844 5.6875 9.1418V6.02344L5.70859 6.00586C5.89492 5.84766 6.26758 5.62969 6.87578 5.41172C8.07461 4.98633 9.84297 4.6875 11.875 4.6875C13.907 4.6875 15.6754 4.98633 16.8742 5.41172C17.4824 5.62969 17.8516 5.84766 18.0414 6.00586L18.0625 6.02344ZM18.0625 10.998V13.6418C17.5949 13.8949 16.9516 14.141 16.1359 14.3414C14.9441 14.6367 13.4746 14.8125 11.875 14.8125C10.2754 14.8125 8.80586 14.6367 7.61406 14.3414C6.79844 14.141 6.15508 13.8984 5.6875 13.6418V11.0016C6.15508 11.1879 6.66836 11.3496 7.20977 11.4832C8.55273 11.8102 10.1594 12 11.875 12C13.5906 12 15.1973 11.8102 16.5402 11.4797C17.0816 11.3461 17.5949 11.1879 18.0625 10.998ZM5.6875 17.9766V15.5016C6.15508 15.6879 6.66836 15.8496 7.20977 15.9832C8.55273 16.3102 10.1594 16.5 11.875 16.5C13.5906 16.5 15.1973 16.3102 16.5402 15.9797C17.0816 15.8461 17.5949 15.6879 18.0625 15.498V17.9766L18.0414 17.9941C17.8551 18.1523 17.4824 18.3703 16.8742 18.5883C15.6754 19.0137 13.907 19.3125 11.875 19.3125C9.84297 19.3125 8.07461 19.0137 6.87578 18.5883C6.26758 18.3703 5.89844 18.1523 5.70859 17.9941L5.6875 17.9766ZM18.1363 17.9027C18.1363 17.9027 18.1363 17.9062 18.1293 17.9098L18.1328 17.9027V17.8992L18.1363 17.9027ZM5.61719 17.9027C5.61765 17.9041 5.61838 17.9054 5.61934 17.9065C5.62029 17.9076 5.62146 17.9085 5.62276 17.9092C5.62407 17.9098 5.62549 17.9102 5.62695 17.9103C5.6284 17.9104 5.62987 17.9102 5.63125 17.9098C5.63264 17.9093 5.63392 17.9086 5.63502 17.9076C5.63612 17.9067 5.63703 17.9055 5.63768 17.9042C5.63833 17.9029 5.63872 17.9015 5.63882 17.9C5.63893 17.8986 5.63874 17.8971 5.63828 17.8957C5.63782 17.8943 5.63709 17.893 5.63613 17.8919C5.63518 17.8908 5.63401 17.8899 5.63271 17.8893C5.6314 17.8886 5.62998 17.8882 5.62852 17.8881C5.62707 17.888 5.6256 17.8882 5.62422 17.8887C5.62283 17.8891 5.62155 17.8899 5.62045 17.8908C5.61935 17.8918 5.61844 17.8929 5.61779 17.8942C5.61714 17.8956 5.61675 17.897 5.61664 17.8984C5.61654 17.8999 5.61673 17.9013 5.61719 17.9027ZM5.61719 6.09727C5.61586 6.09847 5.61485 6.09998 5.61427 6.10168C5.61369 6.10337 5.61355 6.10519 5.61387 6.10695C5.61418 6.10872 5.61494 6.11037 5.61607 6.11176C5.6172 6.11315 5.61867 6.11423 5.62033 6.11489C5.622 6.11556 5.6238 6.11579 5.62558 6.11556C5.62736 6.11534 5.62905 6.11466 5.63049 6.1136C5.63193 6.11254 5.63309 6.11113 5.63383 6.1095C5.63458 6.10787 5.6349 6.10608 5.63477 6.1043C5.6361 6.1031 5.6371 6.10158 5.63768 6.09988C5.63826 6.09819 5.6384 6.09637 5.63809 6.09461C5.63777 6.09285 5.63701 6.09119 5.63588 6.0898C5.63475 6.08841 5.63328 6.08734 5.63162 6.08667C5.62996 6.08601 5.62815 6.08577 5.62637 6.086C5.6246 6.08623 5.62291 6.0869 5.62146 6.08796C5.62002 6.08902 5.61887 6.09043 5.61812 6.09206C5.61737 6.09369 5.61705 6.09548 5.61719 6.09727ZM18.1328 6.09023C18.13 6.08977 18.1271 6.09043 18.1248 6.09208C18.1225 6.09373 18.121 6.09623 18.1205 6.09902C18.12 6.10182 18.1207 6.10469 18.1224 6.107C18.124 6.1093 18.1265 6.11086 18.1293 6.11133C18.1307 6.11156 18.1321 6.11151 18.1335 6.1112C18.1348 6.11088 18.1361 6.1103 18.1373 6.10948C18.1384 6.10867 18.1394 6.10763 18.1401 6.10644C18.1409 6.10525 18.1414 6.10392 18.1416 6.10254C18.1418 6.10115 18.1418 6.09974 18.1415 6.09837C18.1412 6.097 18.1406 6.09571 18.1398 6.09457C18.1389 6.09342 18.1379 6.09245 18.1367 6.09171C18.1355 6.09097 18.1342 6.09047 18.1328 6.09023ZM19.75 18.1875V5.8125C19.75 4.25859 16.2238 3 11.875 3C7.52617 3 4 4.25859 4 5.8125V18.1875C4 19.7414 7.52617 21 11.875 21C16.2238 21 19.75 19.7414 19.75 18.1875Z" fill="#077E88"/>
</g>
<defs>
<clipPath id="clip0_256_78911">
<rect width="15.75" height="18" fill="white" transform="translate(4 3)"/>
</clipPath>
</defs>
</svg>
