<svg width="24" height="24" viewBox="0 0 24 24" fill="none" xmlns="http://www.w3.org/2000/svg">
<g clip-path="url(#clip0_256_78917)">
<path d="M4.6875 10.875C4.6875 7.45781 7.45781 4.6875 10.875 4.6875H11.7188C13.8316 4.6875 15.7863 5.97773 16.6266 7.7918C16.7637 8.08711 16.8902 8.38945 17.0273 8.70234L17.0801 8.82539C17.2312 9.18047 17.393 9.55312 17.5687 9.91875C17.9238 10.65 18.3598 11.3953 18.9961 12.0316L19.1508 12.1863C19.2527 12.2883 19.3125 12.4289 19.3125 12.573C19.3125 12.8754 19.0664 13.1215 18.7641 13.1215H17.9062C17.4387 13.1215 17.0625 13.4977 17.0625 13.9652V16.4965C17.0625 16.8059 16.8094 17.059 16.5 17.059H13.4062C12.9387 17.059 12.5625 17.4352 12.5625 17.9027V20.1527C12.5625 20.6203 12.9387 20.9965 13.4062 20.9965C13.8738 20.9965 14.25 20.6203 14.25 20.1527V18.75H16.5C17.741 18.75 18.75 17.741 18.75 16.5V14.8125H18.7641C19.998 14.8125 21 13.8105 21 12.5766C21 11.9824 20.7645 11.4164 20.3461 10.9945L20.1914 10.8398C19.7449 10.3934 19.4039 9.83789 19.0875 9.18398C18.9293 8.85703 18.7816 8.51953 18.6305 8.16445L18.5777 8.04141C18.4441 7.72852 18.3035 7.40156 18.1559 7.08164C17.0414 4.67344 14.4891 3 11.7188 3H10.875C6.52617 3 3 6.52617 3 10.875C3 12.7594 3.66445 14.4926 4.76836 15.8496C5.08125 16.2363 5.25 16.6371 5.25 17.0133V20.1562C5.25 20.6238 5.62617 21 6.09375 21C6.56133 21 6.9375 20.6238 6.9375 20.1562V17.0133C6.9375 16.1379 6.5543 15.368 6.07617 14.7844C5.20781 13.7156 4.6875 12.3586 4.6875 10.875ZM9.75 6.9375V8.625H8.0625C7.75313 8.625 7.5 8.87813 7.5 9.1875V10.3125C7.5 10.6219 7.75313 10.875 8.0625 10.875H9.75V12.5625C9.75 12.8719 10.0031 13.125 10.3125 13.125H11.4375C11.7469 13.125 12 12.8719 12 12.5625V10.875H13.6875C13.9969 10.875 14.25 10.6219 14.25 10.3125V9.1875C14.25 8.87813 13.9969 8.625 13.6875 8.625H12V6.9375C12 6.62812 11.7469 6.375 11.4375 6.375H10.3125C10.0031 6.375 9.75 6.62812 9.75 6.9375Z" fill="#077E88"/>
</g>
<defs>
<clipPath id="clip0_256_78917">
<rect width="18" height="18" fill="white" transform="translate(3 3)"/>
</clipPath>
</defs>
</svg>
