<svg width="72" height="72" viewBox="0 0 72 72" fill="none" xmlns="http://www.w3.org/2000/svg">
<g clip-path="url(#clip0_256_79971)">
<path d="M49.4583 18.4688C49.4583 19.5773 49.249 20.8277 48.8767 22.1555C48.2137 24.5273 47.0622 27.157 45.6896 29.7867L45.678 29.8125C45.3174 30.5086 44.9451 31.1918 44.5613 31.875C44.0495 32.7773 43.526 33.6797 42.991 34.5563L42.9444 34.6336C40.8391 38.1012 38.6755 41.2207 37.2215 43.2188C36.3259 44.4563 34.6625 44.4563 33.7785 43.2188C32.3361 41.2207 30.1609 38.1012 28.0556 34.6336C25.9153 31.1145 23.8332 27.2215 22.6234 23.7539C22.5304 23.4832 22.4373 23.2125 22.3559 22.9418C21.8441 21.3176 21.5417 19.7965 21.5417 18.4816C21.5417 17.8758 21.5766 17.2828 21.6347 16.7027C22.4257 8.98125 28.3347 3 35.5 3C43.212 3 49.4583 9.92227 49.4583 18.4688ZM42.9444 41.7492C44.5148 39.4031 46.2944 36.6059 47.9113 33.7055C48.1207 33.3316 48.33 32.9578 48.5278 32.5711V61.4848L63.4167 55.4906V22.8902L50.7727 27.982C51.0286 27.3762 51.2845 26.7832 51.5056 26.1773C52.1918 24.3727 52.7851 22.4133 53.041 20.4797L65.2545 15.5555C66.1153 15.2074 67.0691 15.3492 67.8135 15.9293C68.558 16.5094 69 17.4504 69 18.4688V57.6563C69 58.9582 68.2672 60.1184 67.1622 60.5695L46.6899 68.8195C46.0734 69.0645 45.3988 69.0645 44.7823 68.8195L25.2639 60.9434L5.74549 68.8066C4.88472 69.1547 3.9309 69.0129 3.18646 68.4328C2.44201 67.8527 2 66.9117 2 65.9063V26.7188C2 25.4168 2.73281 24.2566 3.83785 23.8055L17.8194 18.1723C17.8194 18.2754 17.8194 18.3656 17.8194 18.4688C17.8194 20.4152 18.2498 22.4262 18.8547 24.3469L7.58333 28.8844V61.4848L22.4722 55.4906V32.584C22.6816 32.9707 22.8793 33.3445 23.0887 33.7184C24.7056 36.6188 26.4736 39.416 28.0556 41.7621V55.4906L42.9444 61.4848V41.7492ZM35.5 22.5938C36.734 22.5938 37.9174 22.0505 38.79 21.0835C39.6626 20.1165 40.1528 18.805 40.1528 17.4375C40.1528 16.07 39.6626 14.7585 38.79 13.7915C37.9174 12.8245 36.734 12.2813 35.5 12.2813C34.266 12.2813 33.0826 12.8245 32.21 13.7915C31.3374 14.7585 30.8472 16.07 30.8472 17.4375C30.8472 18.805 31.3374 20.1165 32.21 21.0835C33.0826 22.0505 34.266 22.5938 35.5 22.5938Z" fill="#077E88"/>
</g>
<defs>
<clipPath id="clip0_256_79971">
<rect width="67" height="66" fill="white" transform="translate(2 3)"/>
</clipPath>
</defs>
</svg>
