<svg width="36" height="28" viewBox="0 0 36 28" fill="none" xmlns="http://www.w3.org/2000/svg">
<g clip-path="url(#clip0_256_79539)">
<path d="M25.0166 10.5H32.0327V24.5H25.0166V10.5ZM24.1396 7C22.687 7 21.5085 8.17578 21.5085 9.625V25.375C21.5085 26.8242 22.687 28 24.1396 28H32.9097C34.3622 28 35.5407 26.8242 35.5407 25.375V9.625C35.5407 8.17578 34.3622 7 32.9097 7H24.1396Z" fill="#2A57BE"/>
<path opacity="0.4" d="M7.47581 0C5.5409 0 3.96776 1.56953 3.96776 3.5V15.75H1.51213C0.931111 15.75 0.459717 16.2203 0.459717 16.8C0.459717 19.1188 2.34529 21 4.66937 21H19.754V15.75H7.47581V3.5H25.016V5.25H28.5241V3.5C28.5241 1.56953 26.9509 0 25.016 0H7.47581ZM32.0321 24.5V10.5H25.016V24.5H32.0321Z" fill="#2A57BE"/>
</g>
<defs>
<clipPath id="clip0_256_79539">
<rect width="35.0805" height="28" fill="white" transform="translate(0.459717)"/>
</clipPath>
</defs>
</svg>
