<svg width="32" height="32" viewBox="0 0 32 32" fill="none" xmlns="http://www.w3.org/2000/svg">
<g clip-path="url(#clip0_256_79556)">
<path d="M21.4687 11.125C21.6312 11.55 21.4375 12.0187 21.0437 12.25L20.8562 12.3562C20.2812 12.6875 20 13.3437 20 14.0062C20 14.6687 20.2812 15.325 20.8562 15.6562L21.0437 15.7625C21.4375 15.9875 21.6375 16.4562 21.4687 16.8875C21.3375 17.2312 21.1812 17.5562 21.0062 17.875L20.8562 18.1375C20.6687 18.4562 20.4562 18.7562 20.225 19.0437C19.9375 19.4 19.4312 19.4625 19.0375 19.2312L18.8562 19.125C18.2812 18.7937 17.5812 18.875 17.0062 19.2062C16.4312 19.5375 16 20.1125 16 20.775V20.9875C16 21.4437 15.6937 21.85 15.2437 21.9187C14.8375 21.9812 14.425 22.0125 14 22.0125C13.575 22.0125 13.1625 21.9812 12.7562 21.9187C12.3062 21.85 12 21.4437 12 20.9875V20.775C12 20.1125 11.5687 19.5375 10.9937 19.2062C10.4187 18.875 9.71873 18.7937 9.14373 19.125L8.96248 19.2312C8.56873 19.4562 8.06248 19.3937 7.77498 19.0437C7.54373 18.7562 7.33123 18.4562 7.14373 18.1375L6.99373 17.8812C6.81873 17.5625 6.66248 17.2312 6.53123 16.8937C6.36873 16.4687 6.56248 16 6.95623 15.7687L7.14373 15.6625C7.71873 15.3312 7.99998 14.675 7.99998 14.0125C7.99998 13.35 7.71873 12.6937 7.14373 12.3625L6.96248 12.2562C6.56873 12.0312 6.36873 11.5625 6.53748 11.1312C6.66873 10.7875 6.82498 10.4562 6.99998 10.1375L7.14373 9.8937C7.33748 9.57495 7.54998 9.2687 7.78123 8.9812C8.06873 8.62495 8.57498 8.56245 8.96873 8.7937L9.14998 8.89995C9.72498 9.2312 10.425 9.14995 11 8.8187C11.575 8.48745 12.0062 7.91245 12.0062 7.24995V7.03745C12.0062 6.5812 12.3125 6.17495 12.7625 6.1062C13.1687 6.0437 13.5812 6.01245 14.0062 6.01245C14.4312 6.01245 14.8437 6.0437 15.25 6.1062C15.7 6.17495 16.0062 6.5812 16.0062 7.03745V7.24995C16.0062 7.91245 16.4375 8.48745 17.0125 8.8187C17.5875 9.14995 18.2875 9.2312 18.8625 8.89995L19.0437 8.7937C19.4375 8.5687 19.9437 8.6312 20.2312 8.9812C20.4625 9.2687 20.675 9.57495 20.8687 9.88745L21.0125 10.1375C21.1875 10.4562 21.3437 10.7875 21.475 11.1312L21.4687 11.125ZM14 16.5C14.663 16.5 15.2989 16.2366 15.7678 15.7677C16.2366 15.2989 16.5 14.663 16.5 14C16.5 13.3369 16.2366 12.701 15.7678 12.2322C15.2989 11.7633 14.663 11.5 14 11.5C13.3369 11.5 12.7011 11.7633 12.2322 12.2322C11.7634 12.701 11.5 13.3369 11.5 14C11.5 14.663 11.7634 15.2989 12.2322 15.7677C12.7011 16.2366 13.3369 16.5 14 16.5Z" fill="#2A57BE"/>
<path opacity="0.4" d="M14 0C6.2625 0 0 6.2875 0 14.0125C0 17.1313 1.0375 20.15 2.93125 22.5938C3.56875 23.4188 4 24.4062 4 25.4562V30C4 31.1063 4.89375 32 6 32H18C19.1063 32 20 31.1063 20 30V28H24C26.2062 28 28 26.2062 28 24V20H29.2625C30.775 20 32 18.775 32 17.2625C32 16.6375 31.7875 16.0375 31.4 15.55L28.775 12.2625C28.2563 11.6187 27.975 10.825 27.8312 10.0125C26.825 4.33125 21.45 0 15.5 0H14ZM21.4688 11.125C21.6313 11.55 21.4375 12.0188 21.0438 12.25L20.8563 12.3562C20.2812 12.6875 20 13.3438 20 14.0063C20 14.6688 20.2812 15.325 20.8563 15.6562L21.0438 15.7625C21.4375 15.9875 21.6375 16.4563 21.4688 16.8875C21.3375 17.2313 21.1812 17.5562 21.0063 17.875L20.8563 18.1375C20.6688 18.4563 20.4563 18.7563 20.225 19.0438C19.9375 19.4 19.4312 19.4625 19.0375 19.2313L18.8563 19.125C18.2812 18.7938 17.5813 18.875 17.0063 19.2062C16.4312 19.5375 16 20.1125 16 20.775V20.9875C16 21.4437 15.6937 21.85 15.2437 21.9188C14.8375 21.9813 14.425 22.0125 14 22.0125C13.575 22.0125 13.1625 21.9813 12.7563 21.9188C12.3063 21.85 12 21.4437 12 20.9875V20.775C12 20.1125 11.5687 19.5375 10.9937 19.2062C10.4187 18.875 9.71875 18.7938 9.14375 19.125L8.9625 19.2313C8.56875 19.4563 8.0625 19.3938 7.775 19.0438C7.54375 18.7563 7.33125 18.4563 7.14375 18.1375L6.99375 17.8813C6.81875 17.5625 6.6625 17.2312 6.53125 16.8937C6.36875 16.4688 6.5625 16 6.95625 15.7688L7.14375 15.6625C7.71875 15.3313 8 14.675 8 14.0125C8 13.35 7.71875 12.6938 7.14375 12.3625L6.9625 12.2563C6.56875 12.0312 6.36875 11.5625 6.5375 11.1313C6.66875 10.7875 6.825 10.4563 7 10.1375L7.14375 9.89375C7.3375 9.575 7.55 9.26875 7.78125 8.98125C8.06875 8.625 8.575 8.5625 8.96875 8.79375L9.15 8.9C9.725 9.23125 10.425 9.15 11 8.81875C11.575 8.4875 12.0063 7.9125 12.0063 7.25V7.0375C12.0063 6.58125 12.3125 6.175 12.7625 6.10625C13.1687 6.04375 13.5813 6.0125 14.0063 6.0125C14.4313 6.0125 14.8438 6.04375 15.25 6.10625C15.7 6.175 16.0063 6.58125 16.0063 7.0375V7.25C16.0063 7.9125 16.4375 8.4875 17.0125 8.81875C17.5875 9.15 18.2875 9.23125 18.8625 8.9L19.0438 8.79375C19.4375 8.56875 19.9438 8.63125 20.2313 8.98125C20.4625 9.26875 20.675 9.575 20.8687 9.8875L21.0125 10.1375C21.1875 10.4563 21.3438 10.7875 21.475 11.1313L21.4688 11.125Z" fill="#2A57BE"/>
</g>
<defs>
<clipPath id="clip0_256_79556">
<rect width="32" height="32" fill="white"/>
</clipPath>
</defs>
</svg>
