<svg width="72" height="72" viewBox="0 0 72 72" fill="none" xmlns="http://www.w3.org/2000/svg">
<g clip-path="url(#clip0_256_79981)">
<path d="M16.525 25.1579C18.8125 25.1579 21.0063 24.2014 22.6238 22.4987C24.2413 20.7961 25.15 18.4868 25.15 16.0789C25.15 13.6711 24.2413 11.3618 22.6238 9.65916C21.0063 7.95653 18.8125 7 16.525 7C14.2375 7 12.0437 7.95653 10.4262 9.65916C8.8087 11.3618 7.9 13.6711 7.9 16.0789C7.9 18.4868 8.8087 20.7961 10.4262 22.4987C12.0437 24.2014 14.2375 25.1579 16.525 25.1579ZM56.2 25.1579C58.4875 25.1579 60.6813 24.2014 62.2988 22.4987C63.9163 20.7961 64.825 18.4868 64.825 16.0789C64.825 13.6711 63.9163 11.3618 62.2988 9.65916C60.6813 7.95653 58.4875 7 56.2 7C53.9125 7 51.7187 7.95653 50.1012 9.65916C48.4837 11.3618 47.575 13.6711 47.575 16.0789C47.575 18.4868 48.4837 20.7961 50.1012 22.4987C51.7187 24.2014 53.9125 25.1579 56.2 25.1579ZM1 40.8985C1 42.2263 2.035 43.3158 3.29641 43.3158H26.3036C26.3252 43.3158 26.3467 43.3158 26.3791 43.3158C23.5112 40.6488 21.7108 36.7563 21.7108 32.4211C21.7108 31.5586 21.7863 30.7188 21.9156 29.8903C20.4494 29.1753 18.8214 28.7895 17.1072 28.7895H12.5036C6.15344 28.7895 1 34.2141 1 40.8985ZM44.6964 43.3158H67.7036C68.9758 43.3158 70 42.2263 70 40.8985C70 34.2141 64.8466 28.7895 58.4964 28.7895H53.9036C52.1894 28.7895 50.5614 29.1867 49.0952 29.8903C49.2353 30.7074 49.3 31.5586 49.3 32.4211C49.3 36.7563 47.4888 40.6488 44.6317 43.3158C44.6533 43.3158 44.6748 43.3158 44.7072 43.3158H44.6964ZM35.5 26.9737C36.1796 26.9737 36.8525 27.1146 37.4804 27.3883C38.1082 27.6621 38.6787 28.0633 39.1593 28.5692C39.6398 29.075 40.021 29.6755 40.2811 30.3364C40.5411 30.9973 40.675 31.7057 40.675 32.4211C40.675 33.1364 40.5411 33.8448 40.2811 34.5057C40.021 35.1666 39.6398 35.7671 39.1593 36.2729C38.6787 36.7788 38.1082 37.18 37.4804 37.4538C36.8525 37.7275 36.1796 37.8684 35.5 37.8684C34.8204 37.8684 34.1475 37.7275 33.5196 37.4538C32.8918 37.18 32.3213 36.7788 31.8407 36.2729C31.3602 35.7671 30.979 35.1666 30.7189 34.5057C30.4589 33.8448 30.325 33.1364 30.325 32.4211C30.325 31.7057 30.4589 30.9973 30.7189 30.3364C30.979 29.6755 31.3602 29.075 31.8407 28.5692C32.3213 28.0633 32.8918 27.6621 33.5196 27.3883C34.1475 27.1146 34.8204 26.9737 35.5 26.9737ZM35.5 43.3158C36.8592 43.3158 38.2051 43.034 39.4608 42.4865C40.7165 41.939 41.8575 41.1365 42.8186 40.1248C43.7796 39.1131 44.542 37.9121 45.0622 36.5903C45.5823 35.2685 45.85 33.8518 45.85 32.4211C45.85 30.9903 45.5823 29.5736 45.0622 28.2518C44.542 26.93 43.7796 25.729 42.8186 24.7173C41.8575 23.7056 40.7165 22.9031 39.4608 22.3556C38.2051 21.8081 36.8592 21.5263 35.5 21.5263C34.1408 21.5263 32.7949 21.8081 31.5392 22.3556C30.2835 22.9031 29.1425 23.7056 28.1814 24.7173C27.2204 25.729 26.458 26.93 25.9378 28.2518C25.4177 29.5736 25.15 30.9903 25.15 32.4211C25.15 33.8518 25.4177 35.2685 25.9378 36.5903C26.458 37.9121 27.2204 39.1131 28.1814 40.1248C29.1425 41.1365 30.2835 41.939 31.5392 42.4865C32.7949 43.034 34.1408 43.3158 35.5 43.3158ZM29.1714 52.3947H41.8286C46.1195 52.3947 49.7205 55.4816 50.7339 59.6579H20.2661C21.2903 55.4816 24.8912 52.3947 29.1714 52.3947ZM29.1714 46.9474C21.2364 46.9474 14.8 53.7225 14.8 62.0752C14.8 63.7434 16.083 65.1053 17.6786 65.1053H53.3214C54.9062 65.1053 56.2 63.7548 56.2 62.0752C56.2 53.7225 49.7636 46.9474 41.8286 46.9474H29.1714Z" fill="#077E88"/>
</g>
<defs>
<clipPath id="clip0_256_79981">
<rect width="69" height="58.1053" fill="white" transform="translate(1 7)"/>
</clipPath>
</defs>
</svg>
