<svg width="24" height="24" viewBox="0 0 24 24" fill="none" xmlns="http://www.w3.org/2000/svg">
<path d="M12 4.57143C12.7578 4.57143 13.4845 4.87245 14.0203 5.40827C14.5561 5.94409 14.8571 6.67081 14.8571 7.42858C14.8571 8.18634 14.5561 8.91306 14.0203 9.44888C13.4845 9.9847 12.7578 10.2857 12 10.2857C11.2422 10.2857 10.5155 9.9847 9.9797 9.44888C9.44388 8.91306 9.14286 8.18634 9.14286 7.42858C9.14286 6.67081 9.44388 5.94409 9.9797 5.40827C10.5155 4.87245 11.2422 4.57143 12 4.57143ZM7.42857 7.42858C7.42857 8.64099 7.9102 9.80376 8.76751 10.6611C9.62482 11.5184 10.7876 12 12 12C13.2124 12 14.3752 11.5184 15.2325 10.6611C16.0898 9.80376 16.5714 8.64099 16.5714 7.42858C16.5714 6.21616 16.0898 5.0534 15.2325 4.19609C14.3752 3.33878 13.2124 2.85715 12 2.85715C10.7876 2.85715 9.62482 3.33878 8.76751 4.19609C7.9102 5.0534 7.42857 6.21616 7.42857 7.42858ZM9.71429 15.4643C9.9 15.4393 10.0929 15.4286 10.2857 15.4286H13.7143C13.9071 15.4286 14.1 15.4393 14.2857 15.4643V17.2143C13.3 17.4679 12.5714 18.3643 12.5714 19.4286V20.5714C12.5714 20.8857 12.8286 21.1429 13.1429 21.1429H14C14.3143 21.1429 14.5714 20.8857 14.5714 20.5714C14.5714 20.2571 14.3143 20 14 20H13.7143V19.4286C13.7143 18.7964 14.225 18.2857 14.8571 18.2857C15.4893 18.2857 16 18.7964 16 19.4286V20H15.7143C15.4 20 15.1429 20.2571 15.1429 20.5714C15.1429 20.8857 15.4 21.1429 15.7143 21.1429H16.5714C16.8857 21.1429 17.1429 20.8857 17.1429 20.5714V19.4286C17.1429 18.3643 16.4143 17.4679 15.4286 17.2143V15.7607C17.1036 16.4393 18.2857 18.0821 18.2857 20V20.2857C18.2857 20.7607 18.6679 21.1429 19.1429 21.1429C19.6179 21.1429 20 20.7607 20 20.2857V20C20 16.5286 17.1857 13.7143 13.7143 13.7143H10.2857C6.81429 13.7143 4 16.5286 4 20V20.2857C4 20.7607 4.38214 21.1429 4.85714 21.1429C5.33214 21.1429 5.71429 20.7607 5.71429 20.2857V20C5.71429 18.0821 6.89643 16.4393 8.57143 15.7607V17.225C7.74643 17.4714 7.14286 18.2357 7.14286 19.1429C7.14286 20.2464 8.03929 21.1429 9.14286 21.1429C10.2464 21.1429 11.1429 20.2464 11.1429 19.1429C11.1429 18.2357 10.5393 17.4714 9.71429 17.225V15.4643ZM9.14286 18.2857C9.37019 18.2857 9.5882 18.376 9.74895 18.5368C9.90969 18.6975 10 18.9155 10 19.1429C10 19.3702 9.90969 19.5882 9.74895 19.749C9.5882 19.9097 9.37019 20 9.14286 20C8.91553 20 8.69751 19.9097 8.53677 19.749C8.37602 19.5882 8.28571 19.3702 8.28571 19.1429C8.28571 18.9155 8.37602 18.6975 8.53677 18.5368C8.69751 18.376 8.91553 18.2857 9.14286 18.2857Z" fill="#077E88"/>
</svg>
