<svg width="564" height="646" viewBox="0 0 564 646" fill="none" xmlns="http://www.w3.org/2000/svg">
<mask id="mask0_256_80086" style="mask-type:alpha" maskUnits="userSpaceOnUse" x="0" y="0" width="565" height="646">
<rect x="0.0429688" width="563.958" height="646" fill="#D9D9D9"/>
</mask>
<g mask="url(#mask0_256_80086)">
<path d="M93.0344 607.977C91.3315 607.977 90.48 607.128 90.48 605.431L90.48 597.795C90.48 596.097 91.3315 595.249 93.0344 595.249L100.698 595.249C102.401 595.249 103.252 596.097 103.252 597.795L103.252 605.431C103.252 607.128 102.401 607.977 100.698 607.977L93.0344 607.977Z" fill="#077E88"/>
<path d="M163.995 537.267C162.292 537.267 161.441 536.418 161.441 534.721L161.441 527.085C161.441 525.388 162.292 524.539 163.995 524.539L171.659 524.539C173.362 524.539 174.213 525.388 174.213 527.085L174.213 534.721C174.213 536.418 173.362 537.267 171.659 537.267L163.995 537.267Z" fill="#077E88"/>
<path d="M233.412 610.522C231.028 610.522 229.836 609.335 229.836 606.959V596.267C229.836 593.891 231.028 592.703 233.412 592.703L244.141 592.703C246.525 592.703 247.717 593.891 247.717 596.267V606.959C247.717 609.335 246.525 610.522 244.141 610.522L233.412 610.522Z" fill="#077E88"/>
<path d="M234.941 466.555C233.238 466.555 232.386 465.706 232.386 464.009L232.386 456.373C232.386 454.676 233.238 453.827 234.941 453.827L242.604 453.827C244.307 453.827 245.159 454.676 245.159 456.373L245.159 464.009C245.159 465.706 244.307 466.555 242.604 466.555L234.941 466.555Z" fill="#077E88"/>
<path d="M304.365 539.812C301.981 539.812 300.789 538.624 300.789 536.248V525.556C300.789 523.18 301.981 521.992 304.365 521.992L315.094 521.992C317.478 521.992 318.67 523.18 318.67 525.556L318.67 536.248C318.67 538.624 317.478 539.812 315.094 539.812L304.365 539.812Z" fill="#077E88"/>
<path d="M373.794 613.068C370.729 613.068 369.196 611.541 369.196 608.486L369.196 594.74C369.196 591.685 370.729 590.158 373.794 590.158L387.588 590.158C390.653 590.158 392.186 591.685 392.186 594.74L392.186 608.486C392.186 611.541 390.653 613.068 387.588 613.068L373.794 613.068Z" fill="#077E88"/>
<path d="M305.898 395.845C304.195 395.845 303.343 394.997 303.343 393.299L303.343 385.663C303.343 383.966 304.195 383.117 305.898 383.117L313.561 383.117C315.264 383.117 316.116 383.966 316.116 385.663L316.116 393.299C316.116 394.997 315.264 395.845 313.561 395.845L305.898 395.845Z" fill="#077E88"/>
<path d="M375.326 469.101C372.942 469.101 371.75 467.913 371.75 465.537V454.845C371.75 452.469 372.942 451.282 375.326 451.282L386.055 451.281C388.439 451.281 389.631 452.469 389.631 454.845L389.631 465.537C389.631 467.913 388.439 469.101 386.055 469.101L375.326 469.101Z" fill="#077E88"/>
<path d="M444.747 542.358C441.682 542.358 440.149 540.831 440.149 537.776L440.149 524.03C440.149 520.975 441.682 519.448 444.747 519.448L458.541 519.448C461.607 519.448 463.139 520.975 463.139 524.03L463.139 537.776C463.139 540.831 461.607 542.358 458.541 542.358L444.747 542.358Z" fill="#077E88"/>
<path d="M514.172 615.614C510.425 615.614 508.552 613.747 508.552 610.013V593.212C508.552 589.479 510.425 587.612 514.172 587.612L531.031 587.612C534.778 587.612 536.651 589.479 536.651 593.213V610.013C536.651 613.747 534.778 615.614 531.031 615.614L514.172 615.614Z" fill="#077E88"/>
<path d="M583.597 688.869C579.169 688.869 576.955 686.663 576.955 682.251L576.955 662.395C576.955 657.983 579.169 655.777 583.597 655.777L603.521 655.777C607.949 655.777 610.163 657.983 610.163 662.395L610.163 682.251C610.163 686.663 607.949 688.869 603.521 688.869L583.597 688.869Z" fill="#077E88"/>
<path d="M376.855 325.134C375.152 325.134 374.3 324.286 374.3 322.588L374.3 314.952C374.3 313.255 375.152 312.406 376.855 312.406L384.518 312.406C386.221 312.406 387.073 313.255 387.073 314.952L387.073 322.588C387.073 324.286 386.221 325.134 384.518 325.134L376.855 325.134Z" fill="#077E88"/>
<path d="M446.279 398.391C443.895 398.391 442.703 397.203 442.703 394.827V384.135C442.703 381.759 443.895 380.572 446.279 380.572L457.008 380.572C459.392 380.572 460.584 381.759 460.584 384.135L460.584 394.827C460.584 397.203 459.392 398.391 457.008 398.391L446.279 398.391Z" fill="#077E88"/>
<path d="M515.704 471.647C512.639 471.647 511.106 470.12 511.106 467.065L511.106 453.319C511.106 450.264 512.639 448.737 515.704 448.737L529.498 448.737C532.564 448.737 534.096 450.264 534.096 453.319L534.096 467.065C534.096 470.12 532.564 471.647 529.498 471.647L515.704 471.647Z" fill="#077E88"/>
<path d="M447.812 254.424C446.109 254.424 445.257 253.575 445.257 251.878L445.257 244.241C445.257 242.544 446.109 241.696 447.812 241.696L455.475 241.696C457.178 241.696 458.03 242.544 458.03 244.241L458.03 251.878C458.03 253.575 457.178 254.424 455.475 254.424L447.812 254.424Z" fill="#077E88"/>
<path d="M517.237 327.68C514.852 327.68 513.66 326.492 513.66 324.116V313.424C513.66 311.048 514.852 309.861 517.237 309.861L527.965 309.861C530.349 309.861 531.541 311.048 531.541 313.424L531.541 324.116C531.541 326.492 530.349 327.68 527.965 327.68L517.237 327.68Z" fill="#077E88"/>
<path d="M518.769 183.713C517.066 183.713 516.214 182.864 516.214 181.167L516.214 173.53C516.214 171.833 517.066 170.985 518.769 170.985L526.432 170.985C528.135 170.985 528.987 171.833 528.987 173.53L528.987 181.167C528.987 182.864 528.135 183.713 526.432 183.713L518.769 183.713Z" fill="#077E88"/>
<path d="M22.499 607.27C20.9805 607.27 20.2284 606.52 20.2284 605.007L20.2284 598.219C20.2284 596.706 20.9805 595.956 22.499 595.956L29.3109 595.956C30.8294 595.956 31.5815 596.706 31.5815 598.219L31.5815 605.007C31.5815 606.52 30.8294 607.27 29.3109 607.27L22.499 607.27Z" fill="#077E88"/>
<path d="M93.4639 536.559C91.9454 536.559 91.1932 535.809 91.1932 534.296L91.1933 527.508C91.1932 525.995 91.9454 525.245 93.4639 525.245L100.276 525.245C101.794 525.245 102.546 525.995 102.546 527.508L102.546 534.296C102.546 535.809 101.794 536.559 100.276 536.559L93.4639 536.559Z" fill="#077E88"/>
<path d="M162.718 610.098C160.447 610.098 159.312 608.967 159.312 606.704L159.312 596.522C159.312 594.259 160.447 593.128 162.718 593.128L172.936 593.128C175.206 593.128 176.342 594.259 176.342 596.522L176.342 606.704C176.342 608.967 175.206 610.098 172.936 610.098L162.718 610.098Z" fill="#077E88"/>
<path d="M164.409 465.848C162.891 465.848 162.139 465.098 162.139 463.585L162.139 456.797C162.139 455.284 162.891 454.534 164.409 454.534L171.221 454.534C172.74 454.534 173.492 455.284 173.492 456.797L173.492 463.585C173.492 465.098 172.74 465.848 171.221 465.848L164.409 465.848Z" fill="#077E88"/>
<path d="M233.663 539.387C231.393 539.387 230.257 538.256 230.257 535.993L230.257 525.811C230.257 523.548 231.393 522.417 233.663 522.417L243.881 522.417C246.152 522.417 247.287 523.548 247.287 525.811L247.287 535.993C247.287 538.256 246.152 539.387 243.881 539.387L233.663 539.387Z" fill="#077E88"/>
<path d="M302.917 612.927C299.894 612.927 298.376 611.413 298.376 608.401L298.376 594.825C298.376 591.812 299.894 590.299 302.917 590.299L316.541 590.299C319.564 590.299 321.082 591.812 321.082 594.825L321.082 608.401C321.082 611.413 319.564 612.927 316.541 612.927L302.917 612.927Z" fill="#077E88"/>
<path d="M372.17 686.465C368.381 686.465 366.493 684.584 366.493 680.808V663.837C366.493 660.062 368.381 658.181 372.17 658.181L389.2 658.181C392.989 658.181 394.876 660.062 394.876 663.837V680.808C394.876 684.584 392.989 686.465 389.2 686.465L372.17 686.465Z" fill="#077E88"/>
<path d="M235.366 395.138C233.848 395.138 233.096 394.388 233.096 392.875L233.096 386.087C233.096 384.574 233.848 383.824 235.366 383.824L242.178 383.824C243.697 383.824 244.449 384.574 244.449 386.087L244.449 392.875C244.449 394.388 243.697 395.138 242.178 395.138L235.366 395.138Z" fill="#077E88"/>
<path d="M304.62 468.676C302.35 468.676 301.214 467.545 301.214 465.282L301.214 455.1C301.214 452.837 302.35 451.706 304.62 451.706L314.838 451.706C317.109 451.706 318.244 452.837 318.244 455.1L318.244 465.282C318.244 467.545 317.109 468.676 314.838 468.676L304.62 468.676Z" fill="#077E88"/>
<path d="M373.874 542.216C370.851 542.216 369.333 540.702 369.333 537.69L369.333 524.114C369.333 521.101 370.851 519.588 373.874 519.588L387.498 519.588C390.521 519.588 392.039 521.101 392.039 524.114L392.039 537.69C392.039 540.702 390.521 542.216 387.498 542.216L373.874 542.216Z" fill="#077E88"/>
<path d="M443.127 615.755C439.338 615.755 437.45 613.874 437.45 610.098V593.128C437.45 589.352 439.338 587.471 443.127 587.471L460.157 587.471C463.946 587.471 465.833 589.352 465.833 593.128V610.098C465.833 613.874 463.946 615.755 460.157 615.755L443.127 615.755Z" fill="#077E88"/>
<path d="M512.385 689.294C507.844 689.294 505.573 687.032 505.573 682.506L505.573 662.141C505.573 657.616 507.844 655.353 512.385 655.353L532.82 655.353C537.362 655.353 539.632 657.616 539.632 662.141L539.632 682.506C539.632 687.032 537.362 689.294 532.82 689.294L512.385 689.294Z" fill="#077E88"/>
<path d="M306.323 324.427C304.805 324.427 304.053 323.677 304.053 322.164L304.053 315.376C304.053 313.863 304.805 313.113 306.323 313.113L313.135 313.113C314.654 313.113 315.406 313.863 315.406 315.376L315.406 322.164C315.406 323.677 314.654 324.427 313.135 324.427L306.323 324.427Z" fill="#077E88"/>
<path d="M375.581 397.966C373.31 397.966 372.175 396.835 372.175 394.572L372.175 384.39C372.175 382.127 373.31 380.996 375.581 380.996L385.799 380.996C388.07 380.996 389.205 382.127 389.205 384.39L389.205 394.572C389.205 396.835 388.07 397.966 385.799 397.966L375.581 397.966Z" fill="#077E88"/>
<path d="M444.835 471.505C441.812 471.505 440.294 469.992 440.294 466.979L440.294 453.403C440.294 450.391 441.812 448.877 444.835 448.877L458.459 448.877C461.482 448.877 463 450.391 463 453.403L463 466.979C463 469.992 461.482 471.505 458.459 471.505L444.835 471.505Z" fill="#077E88"/>
<path d="M514.088 545.044C510.299 545.044 508.411 543.163 508.411 539.387V522.417C508.411 518.641 510.299 516.76 514.088 516.76L531.118 516.76C534.907 516.76 536.794 518.641 536.794 522.417V539.387C536.794 543.163 534.907 545.044 531.118 545.044L514.088 545.044Z" fill="#077E88"/>
<path d="M583.342 618.583C578.801 618.583 576.53 616.321 576.53 611.795L576.53 591.431C576.53 586.905 578.801 584.642 583.342 584.642L603.778 584.642C608.319 584.642 610.589 586.905 610.589 591.431L610.589 611.795C610.589 616.321 608.319 618.583 603.778 618.583L583.342 618.583Z" fill="#077E88"/>
<path d="M377.28 253.716C375.762 253.716 375.01 252.967 375.01 251.454L375.01 244.666C375.01 243.152 375.762 242.403 377.28 242.403L384.092 242.403C385.611 242.403 386.363 243.152 386.363 244.666L386.363 251.454C386.363 252.967 385.611 253.716 384.092 253.716L377.28 253.716Z" fill="#077E88"/>
<path d="M446.534 327.255C444.264 327.255 443.128 326.124 443.128 323.861L443.128 313.679C443.128 311.416 444.264 310.285 446.534 310.285L456.752 310.285C459.023 310.285 460.158 311.416 460.158 313.679L460.158 323.861C460.158 326.124 459.023 327.255 456.752 327.255L446.534 327.255Z" fill="#077E88"/>
<path d="M515.792 400.795C512.769 400.795 511.251 399.282 511.251 396.269L511.251 382.693C511.251 379.681 512.769 378.167 515.792 378.167L529.416 378.167C532.439 378.167 533.957 379.681 533.957 382.693L533.957 396.269C533.957 399.282 532.439 400.795 529.416 400.795L515.792 400.795Z" fill="#077E88"/>
<path d="M448.237 183.006C446.719 183.006 445.967 182.256 445.967 180.743L445.967 173.955C445.967 172.441 446.719 171.692 448.237 171.692L455.049 171.692C456.568 171.692 457.32 172.441 457.32 173.955L457.32 180.743C457.32 182.256 456.568 183.006 455.049 183.006L448.237 183.006Z" fill="#077E88"/>
<path d="M517.491 256.545C515.221 256.545 514.085 255.414 514.085 253.151L514.085 242.968C514.085 240.706 515.221 239.574 517.491 239.574L527.709 239.574C529.98 239.574 531.115 240.706 531.115 242.968L531.115 253.151C531.115 255.414 529.98 256.545 527.709 256.545L517.491 256.545Z" fill="#077E88"/>
<path d="M519.198 112.295C517.68 112.295 516.928 111.546 516.928 110.032L516.927 103.244C516.927 101.731 517.68 100.981 519.198 100.981L526.01 100.982C527.528 100.982 528.281 101.731 528.281 103.244L528.281 110.032C528.281 111.546 527.528 112.295 526.01 112.295L519.198 112.295Z" fill="#077E88"/>
</g>
</svg>
