<svg width="34" height="34" viewBox="0 0 34 34" fill="none" xmlns="http://www.w3.org/2000/svg">
<path d="M2.08203 14.0625C2.08203 9.74609 5.57812 6.25 9.89453 6.25H10.4154C11.5677 6.25 12.4987 7.18099 12.4987 8.33333C12.4987 9.48568 11.5677 10.4167 10.4154 10.4167H9.89453C7.88281 10.4167 6.2487 12.0508 6.2487 14.0625V14.5833H10.4154C12.7135 14.5833 14.582 16.4518 14.582 18.75V22.9167C14.582 25.2148 12.7135 27.0833 10.4154 27.0833H6.2487C3.95052 27.0833 2.08203 25.2148 2.08203 22.9167V20.8333V18.75V14.0625ZM18.7487 14.0625C18.7487 9.74609 22.2448 6.25 26.5612 6.25H27.082C28.2344 6.25 29.1654 7.18099 29.1654 8.33333C29.1654 9.48568 28.2344 10.4167 27.082 10.4167H26.5612C24.5495 10.4167 22.9154 12.0508 22.9154 14.0625V14.5833H27.082C29.3802 14.5833 31.2487 16.4518 31.2487 18.75V22.9167C31.2487 25.2148 29.3802 27.0833 27.082 27.0833H22.9154C20.6172 27.0833 18.7487 25.2148 18.7487 22.9167V20.8333V18.75V14.0625Z" fill="#FEFCFF"/>
</svg>
