<svg width="143" height="40" viewBox="0 0 143 40" fill="none" xmlns="http://www.w3.org/2000/svg">
<path fill-rule="evenodd" clip-rule="evenodd" d="M0.951756 37.8345V3.45176H33.4688V2.5H0.380702C0.170446 2.5 0 2.67045 0 2.8807V38.4055C0 38.6158 0.170447 38.7862 0.380703 38.7862H33.4688V37.8345H0.951756ZM36.2862 4.05941V37.2275H35.3345V4.05941H36.2862ZM17.5432 29.2282L16.1157 30.6624C15.7966 30.9829 15.7973 31.5011 16.1175 31.8203L17.5432 33.2443C17.8641 33.5647 18.3835 33.5647 18.7044 33.2443L20.135 31.8143C20.4552 31.4938 20.4552 30.9756 20.135 30.6552L18.7062 29.227C18.3853 28.9053 17.8635 28.9065 17.5432 29.2282ZM26.7193 20.0567L28.1469 18.6225C28.4671 18.3008 28.989 18.2996 29.3098 18.6213L30.7386 20.0494C31.0588 20.3699 31.0588 20.8881 30.7386 21.2086L29.308 22.6386C28.9871 22.959 28.4677 22.959 28.1469 22.6386L26.7211 21.2146C26.4009 20.8954 26.4003 20.3772 26.7193 20.0567ZM25.4339 25.3478L23.9997 23.9202C23.6792 23.6012 23.1611 23.6018 22.8418 23.922L21.4178 25.3478C21.0974 25.6686 21.0974 26.1881 21.4178 26.5089L22.8478 27.9395C23.1683 28.2598 23.6865 28.2598 24.007 27.9395L25.4351 26.5107C25.7568 26.1899 25.7556 25.668 25.4339 25.3478ZM10.817 25.3575L12.2445 23.9233C12.5648 23.6016 13.0866 23.6004 13.4075 23.922L14.8362 25.3502C15.1565 25.6707 15.1565 26.1889 14.8362 26.5093L13.4057 27.9393C13.0848 28.2598 12.5654 28.2598 12.2445 27.9393L10.8188 26.5154C10.4985 26.1961 10.4979 25.678 10.817 25.3575ZM6.94178 18.6227L5.51424 20.0569C5.1952 20.3774 5.1958 20.8955 5.51606 21.2148L6.94178 22.6387C7.26265 22.9592 7.78208 22.9592 8.10295 22.6387L9.53351 21.2087C9.85377 20.8883 9.85377 20.3701 9.53351 20.0496L8.10476 18.6215C7.7839 18.2998 7.26204 18.301 6.94178 18.6227ZM21.4185 14.7549L22.8461 13.3207C23.1663 12.999 23.6882 12.9978 24.009 13.3195L25.4378 14.7477C25.7581 15.0682 25.7581 15.5863 25.4378 15.9068L24.0072 17.3368C23.6864 17.6573 23.1669 17.6573 22.8461 17.3368L21.4203 15.9129C21.1001 15.5936 21.0995 15.0754 21.4185 14.7549ZM17.5434 8.01969L16.1159 9.45392C15.7968 9.77439 15.7974 10.2926 16.1177 10.6118L17.5434 12.0358C17.8643 12.3562 18.3837 12.3562 18.7046 12.0358L20.1351 10.6058C20.4554 10.2853 20.4554 9.76713 20.1351 9.44667L18.7064 8.01848C18.3855 7.69681 17.8637 7.69802 17.5434 8.01969ZM16.1159 20.0569L17.5434 18.6227C17.8637 18.301 18.3855 18.2998 18.7064 18.6215L20.1351 20.0496C20.4554 20.3701 20.4554 20.8883 20.1351 21.2087L18.7046 22.6387C18.3837 22.9592 17.8643 22.9592 17.5434 22.6387L16.1177 21.2148C15.7974 20.8955 15.7968 20.3774 16.1159 20.0569ZM12.2445 13.3207L10.817 14.7549C10.4979 15.0754 10.4985 15.5936 10.8188 15.9129L12.2445 17.3368C12.5654 17.6573 13.0848 17.6573 13.4057 17.3368L14.8362 15.9068C15.1565 15.5863 15.1565 15.0682 14.8362 14.7477L13.4075 13.3195C13.0866 12.9978 12.5648 12.999 12.2445 13.3207Z" fill="white"/>
<path fill-rule="evenodd" clip-rule="evenodd" d="M52.6453 4.04077V18.7422H54.8399V12.547C54.8399 12.0291 54.937 11.5825 55.1312 11.207C55.3383 10.8315 55.6167 10.5467 55.9663 10.3525C56.3288 10.1453 56.7301 10.0418 57.1704 10.0418C57.6235 10.0418 58.0249 10.1453 58.3744 10.3525C58.724 10.5467 58.9959 10.8315 59.1901 11.207C59.3973 11.5695 59.5008 12.0162 59.5008 12.547V18.7422H61.6759V11.945C61.6759 11.1811 61.5076 10.5014 61.171 9.90582C60.8344 9.31025 60.3683 8.84415 59.7727 8.50753C59.1772 8.1709 58.491 8.00259 57.7141 8.00259C56.9632 8.00259 56.3029 8.17738 55.7332 8.52695C55.3735 8.73952 55.0757 9.01663 54.8399 9.35828V4.04077H52.6453ZM45.8631 6.31299V18.7422H48.1353V6.31299H51.9224V4.27382H42.0178V6.31299H45.8631ZM68.1807 18.9753C67.1319 18.9753 66.1998 18.7358 65.3841 18.2567C64.5814 17.7647 63.9534 17.1044 63.5003 16.2758C63.0471 15.4342 62.8206 14.4956 62.8206 13.4598C62.8206 12.3981 63.0471 11.4595 63.5003 10.6438C63.9664 9.82813 64.5878 9.18725 65.3647 8.72115C66.1415 8.24211 67.0219 8.00259 68.0059 8.00259C68.7956 8.00259 69.5013 8.13853 70.1227 8.41042C70.7442 8.68231 71.2685 9.05778 71.6958 9.53682C72.1231 10.0029 72.4467 10.5402 72.6668 11.1487C72.8999 11.7573 73.0164 12.4046 73.0164 13.0908C73.0164 13.2591 73.0099 13.4339 72.997 13.6152C72.984 13.7964 72.9581 13.9647 72.9193 14.1201H65.0989C65.1239 14.5708 65.2255 14.9786 65.4035 15.3436C65.6754 15.8744 66.0509 16.2887 66.5299 16.5865C67.0219 16.8843 67.5786 17.0332 68.2001 17.0332C68.8345 17.0332 69.3718 16.8908 69.812 16.6059C70.2651 16.3211 70.6212 15.9521 70.8801 15.499L72.6668 16.3729C72.4597 16.8649 72.136 17.3116 71.6958 17.7129C71.2685 18.1013 70.7507 18.4121 70.1421 18.6451C69.5466 18.8652 68.8928 18.9753 68.1807 18.9753ZM65.4035 11.5372C65.2867 11.7892 65.2034 12.0676 65.1538 12.3722H70.697C70.6834 12.0521 70.615 11.7544 70.4917 11.4789C70.2846 10.974 69.9609 10.5791 69.5207 10.2942C69.0934 9.99645 68.5885 9.84755 68.0059 9.84755C67.4233 9.84755 66.9054 9.99645 66.4522 10.2942C65.9991 10.5791 65.6495 10.9934 65.4035 11.5372ZM81.0971 18.4121C81.9775 18.7875 82.9291 18.9753 83.9519 18.9753C84.9747 18.9753 85.8875 18.8005 86.6902 18.4509C87.5059 18.1013 88.1921 17.6417 88.7488 17.072C89.3055 16.5024 89.7069 15.8939 89.9529 15.2465L87.8943 14.2755C87.5836 15.0523 87.0851 15.6802 86.3989 16.1593C85.7257 16.6383 84.91 16.8778 83.9519 16.8778C82.9938 16.8778 82.1458 16.6577 81.4078 16.2175C80.6698 15.7644 80.0937 15.1365 79.6794 14.3337C79.278 13.5181 79.0773 12.5729 79.0773 11.4983C79.0773 10.4237 79.278 9.48503 79.6794 8.68231C80.0937 7.87959 80.6698 7.25166 81.4078 6.79851C82.1458 6.34536 82.9938 6.11878 83.9519 6.11878C84.91 6.11878 85.7257 6.36478 86.3989 6.85677C87.0851 7.33581 87.5836 7.96375 87.8943 8.74057L89.9529 7.76954C89.7069 7.10924 89.3055 6.50072 88.7488 5.944C88.1921 5.37432 87.5059 4.9147 86.6902 4.56513C85.8875 4.21556 84.9747 4.04077 83.9519 4.04077C82.9161 4.04077 81.9645 4.2285 81.0971 4.60397C80.2296 4.96649 79.4722 5.48437 78.8249 6.15763C78.1775 6.81793 77.6726 7.6077 77.31 8.52695C76.9605 9.43325 76.7857 10.4237 76.7857 11.4983C76.7857 12.5859 76.9669 13.5828 77.3295 14.4891C77.692 15.3954 78.1904 16.1852 78.8249 16.8584C79.4722 17.5187 80.2296 18.0366 81.0971 18.4121ZM91.319 18.7422V4.04077H93.5136V18.7422H91.319ZM97.5942 18.2567C98.4357 18.7358 99.3615 18.9753 100.371 18.9753C101.381 18.9753 102.3 18.7422 103.129 18.2761C103.958 17.7971 104.618 17.1433 105.11 16.3146C105.602 15.486 105.848 14.5409 105.848 13.4792C105.848 12.4176 105.602 11.4789 105.11 10.6632C104.631 9.83461 103.977 9.18725 103.148 8.72115C102.333 8.24211 101.407 8.00259 100.371 8.00259C99.3485 8.00259 98.4228 8.24211 97.5942 8.72115C96.7656 9.18725 96.1053 9.83461 95.6133 10.6632C95.1213 11.4789 94.8753 12.4176 94.8753 13.4792C94.8753 14.5279 95.1213 15.4666 95.6133 16.2952C96.1053 17.1238 96.7656 17.7777 97.5942 18.2567ZM102.022 16.4894C101.543 16.7872 100.993 16.9361 100.371 16.9361C99.7628 16.9361 99.2126 16.7872 98.7206 16.4894C98.2415 16.1916 97.8596 15.7838 97.5748 15.2659C97.3029 14.7351 97.1669 14.1395 97.1669 13.4792C97.1669 12.8189 97.3029 12.2298 97.5748 11.7119C97.8596 11.1941 98.2415 10.7862 98.7206 10.4884C99.2126 10.1907 99.7628 10.0418 100.371 10.0418C100.993 10.0418 101.543 10.1907 102.022 10.4884C102.501 10.7862 102.877 11.1941 103.148 11.7119C103.433 12.2298 103.576 12.8189 103.576 13.4792C103.576 14.1395 103.433 14.7351 103.148 15.2659C102.877 15.7838 102.501 16.1916 102.022 16.4894ZM110.962 18.9753C110.172 18.9753 109.479 18.8005 108.884 18.4509C108.288 18.0884 107.822 17.5899 107.486 16.9555C107.162 16.3082 107 15.5637 107 14.7221V8.23564H109.195V14.5279C109.195 15.007 109.292 15.4278 109.486 15.7903C109.68 16.1528 109.952 16.4376 110.302 16.6448C110.651 16.839 111.052 16.9361 111.506 16.9361C111.972 16.9361 112.38 16.8325 112.729 16.6254C113.079 16.4182 113.351 16.1269 113.545 15.7514C113.752 15.376 113.856 14.9358 113.856 14.4308V8.23564H116.031V18.7422H113.953V17.4446C113.709 17.8597 113.379 18.1952 112.962 18.4509C112.392 18.8005 111.726 18.9753 110.962 18.9753ZM118.069 16.2758C118.535 17.1044 119.163 17.7647 119.952 18.2567C120.755 18.7358 121.661 18.9753 122.671 18.9753C123.474 18.9753 124.212 18.807 124.885 18.4703C125.415 18.2053 125.849 17.848 126.186 17.3985V18.7422H128.264V4.04077H126.089V9.45606C125.761 9.07037 125.36 8.75419 124.885 8.50753C124.238 8.1709 123.493 8.00259 122.652 8.00259C121.655 8.00259 120.762 8.24211 119.972 8.72115C119.182 9.2002 118.554 9.85403 118.088 10.6826C117.622 11.5113 117.389 12.4434 117.389 13.4792C117.389 14.515 117.615 15.4472 118.069 16.2758ZM124.516 16.4894C124.037 16.7872 123.493 16.9361 122.885 16.9361C122.263 16.9361 121.707 16.7872 121.215 16.4894C120.736 16.1916 120.36 15.7838 120.088 15.2659C119.816 14.7351 119.68 14.1395 119.68 13.4792C119.68 12.8189 119.816 12.2298 120.088 11.7119C120.36 11.1941 120.742 10.7862 121.234 10.4884C121.726 10.1907 122.276 10.0418 122.885 10.0418C123.493 10.0418 124.037 10.1907 124.516 10.4884C125.008 10.7862 125.39 11.1941 125.662 11.7119C125.947 12.2298 126.089 12.8189 126.089 13.4792C126.089 14.1395 125.947 14.7351 125.662 15.2659C125.39 15.7838 125.008 16.1916 124.516 16.4894ZM78.7812 37.2276V22.5261H80.9757V37.2276H78.7812ZM45.8401 22.7592V37.2276H48.1317V22.7592H45.8401ZM50.141 26.721V37.2276H52.3355V31.0324C52.3355 30.5145 52.4326 30.0678 52.6269 29.6924C52.8211 29.3169 53.093 29.032 53.4425 28.8378C53.805 28.6307 54.2129 28.5271 54.666 28.5271C55.1192 28.5271 55.5205 28.6307 55.8701 28.8378C56.2326 29.032 56.511 29.3169 56.7052 29.6924C56.8994 30.0549 56.9965 30.5015 56.9965 31.0324V37.2276H59.1716V30.4498C59.1716 29.6729 59.0033 28.9867 58.6667 28.3912C58.3301 27.7956 57.864 27.3295 57.2684 26.9929C56.6728 26.6563 55.9866 26.4879 55.2098 26.4879C54.4589 26.4879 53.7986 26.6627 53.2289 27.0123C52.8179 27.2552 52.4877 27.5823 52.2384 27.9937V26.721H50.141ZM65.2879 37.3441C64.1874 37.3441 63.3329 37.0334 62.7244 36.4119C62.1159 35.7904 61.8116 34.9165 61.8116 33.7901V28.7019H59.9667V26.721H60.258C60.75 26.721 61.1319 26.5786 61.4038 26.2937C61.6757 26.0089 61.8116 25.6205 61.8116 25.1285V24.3128H64.0062V26.721H66.3949V28.7019H64.0062V33.693C64.0062 34.0555 64.0644 34.3663 64.1809 34.6252C64.2975 34.8712 64.4852 35.0654 64.7441 35.2078C65.0031 35.3373 65.3397 35.402 65.754 35.402C65.8576 35.402 65.9741 35.3956 66.1036 35.3826C66.2331 35.3697 66.3561 35.3567 66.4726 35.3438V37.2276C66.2913 37.2535 66.0906 37.2794 65.8705 37.3053C65.6504 37.3312 65.4562 37.3441 65.2879 37.3441ZM69.784 36.7421C70.5996 37.2211 71.5318 37.4606 72.5805 37.4606C73.2926 37.4606 73.9465 37.3506 74.542 37.1305C75.1505 36.8974 75.6684 36.5867 76.0957 36.1983C76.5359 35.7969 76.8596 35.3502 77.0667 34.8583L75.28 33.9843C75.0211 34.4375 74.665 34.8065 74.2119 35.0913C73.7717 35.3761 73.2344 35.5186 72.6 35.5186C71.9785 35.5186 71.4218 35.3697 70.9298 35.0719C70.4507 34.7741 70.0753 34.3598 69.8034 33.829C69.6253 33.464 69.5238 33.0561 69.4988 32.6055H77.3192C77.358 32.4501 77.3839 32.2818 77.3969 32.1005C77.4098 31.9193 77.4163 31.7445 77.4163 31.5762C77.4163 30.89 77.2998 30.2426 77.0667 29.6341C76.8466 29.0256 76.5229 28.4883 76.0957 28.0222C75.6684 27.5431 75.1441 27.1677 74.5226 26.8958C73.9011 26.6239 73.1955 26.4879 72.4058 26.4879C71.4218 26.4879 70.5414 26.7275 69.7645 27.2065C68.9877 27.6726 68.3663 28.3135 67.9002 29.1292C67.447 29.9448 67.2204 30.8835 67.2204 31.9452C67.2204 32.9809 67.447 33.9196 67.9002 34.7612C68.3533 35.5898 68.9812 36.2501 69.784 36.7421ZM69.5537 30.8576C69.6033 30.553 69.6866 30.2746 69.8034 30.0225C70.0494 29.4787 70.3989 29.0644 70.8521 28.7796C71.3052 28.4818 71.8231 28.3329 72.4058 28.3329C72.9884 28.3329 73.4933 28.4818 73.9206 28.7796C74.3608 29.0644 74.6844 29.4593 74.8916 29.9642C75.0148 30.2397 75.0833 30.5375 75.0969 30.8576H69.5537ZM82.7647 22.5261V37.2276H84.9592V22.5261H82.7647ZM86.7482 37.2276V26.721H88.9428V37.2276H86.7482ZM86.7482 25.2839V22.7592H88.9428V25.2839H86.7482ZM93.6837 41.1311C94.331 41.3771 95.0367 41.5001 95.8005 41.5001C96.7975 41.5001 97.6779 41.293 98.4417 40.8787C99.2056 40.4644 99.8012 39.8947 100.228 39.1696C100.669 38.4576 100.889 37.6484 100.889 36.7421V26.721H98.8107V28.0715C98.4596 27.6256 98.0388 27.2725 97.5484 27.0123C96.9269 26.6627 96.2148 26.4879 95.4121 26.4879C94.4281 26.4879 93.5542 26.7145 92.7903 27.1677C92.0265 27.6208 91.4179 28.2358 90.9648 29.0126C90.5246 29.7895 90.3045 30.6763 90.3045 31.6733C90.3045 32.6572 90.5246 33.5441 90.9648 34.3339C91.4179 35.1237 92.0329 35.7451 92.8098 36.1983C93.5866 36.6514 94.4605 36.878 95.4315 36.878C96.2343 36.878 96.9528 36.7032 97.5872 36.3536C98.029 36.1151 98.4045 35.8011 98.7136 35.4118V36.7421C98.7136 37.3117 98.5842 37.7972 98.3252 38.1986C98.0663 38.6129 97.7167 38.9236 97.2765 39.1308C96.8363 39.3509 96.3378 39.461 95.7811 39.461C95.069 39.461 94.467 39.2991 93.975 38.9754C93.4959 38.6518 93.1658 38.2439 92.9845 37.7519L90.9648 38.587C91.1978 39.1696 91.5474 39.6746 92.0135 40.1018C92.4796 40.542 93.0363 40.8851 93.6837 41.1311ZM97.2377 34.431C96.7845 34.7029 96.2666 34.8388 95.684 34.8388C95.0884 34.8388 94.5576 34.7029 94.0915 34.431C93.6254 34.1462 93.2564 33.7642 92.9845 33.2852C92.7256 32.8061 92.5961 32.2753 92.5961 31.6927C92.5961 31.0842 92.7256 30.5469 92.9845 30.0808C93.2564 29.6017 93.6254 29.2263 94.0915 28.9544C94.5576 28.6695 95.0884 28.5271 95.684 28.5271C96.2537 28.5271 96.7651 28.6695 97.2182 28.9544C97.6714 29.2263 98.0339 29.6017 98.3058 30.0808C98.5777 30.5598 98.7136 31.0971 98.7136 31.6927C98.7136 32.2882 98.5777 32.8256 98.3058 33.3046C98.0469 33.7707 97.6908 34.1462 97.2377 34.431ZM107.614 37.4606C106.565 37.4606 105.633 37.2211 104.817 36.7421C104.014 36.2501 103.386 35.5898 102.933 34.7612C102.48 33.9196 102.254 32.9809 102.254 31.9452C102.254 30.8835 102.48 29.9448 102.933 29.1292C103.399 28.3135 104.021 27.6726 104.798 27.2065C105.574 26.7275 106.455 26.4879 107.439 26.4879C108.229 26.4879 108.934 26.6239 109.556 26.8958C110.177 27.1677 110.702 27.5431 111.129 28.0222C111.556 28.4883 111.88 29.0256 112.1 29.6341C112.333 30.2426 112.449 30.89 112.449 31.5762C112.449 31.7445 112.443 31.9193 112.43 32.1005C112.417 32.2818 112.391 32.4501 112.352 32.6055H104.532C104.557 33.0561 104.658 33.464 104.836 33.829C105.108 34.3598 105.484 34.7741 105.963 35.0719C106.455 35.3697 107.012 35.5186 107.633 35.5186C108.267 35.5186 108.805 35.3761 109.245 35.0913C109.698 34.8065 110.054 34.4375 110.313 33.9843L112.1 34.8583C111.893 35.3502 111.569 35.7969 111.129 36.1983C110.702 36.5867 110.184 36.8974 109.575 37.1305C108.98 37.3506 108.326 37.4606 107.614 37.4606ZM104.836 30.0225C104.72 30.2746 104.636 30.553 104.587 30.8576H110.13C110.116 30.5375 110.048 30.2397 109.925 29.9642C109.718 29.4593 109.394 29.0644 108.954 28.7796C108.526 28.4818 108.021 28.3329 107.439 28.3329C106.856 28.3329 106.338 28.4818 105.885 28.7796C105.432 29.0644 105.082 29.4787 104.836 30.0225ZM113.814 26.721V37.2276H116.009V31.0324C116.009 30.5145 116.106 30.0678 116.3 29.6924C116.494 29.3169 116.766 29.032 117.116 28.8378C117.478 28.6307 117.886 28.5271 118.339 28.5271C118.792 28.5271 119.194 28.6307 119.543 28.8378C119.906 29.032 120.184 29.3169 120.378 29.6924C120.573 30.0549 120.67 30.5015 120.67 31.0324V37.2276H122.845V30.4498C122.845 29.6729 122.677 28.9867 122.34 28.3912C122.003 27.7956 121.537 27.3295 120.942 26.9929C120.346 26.6563 119.66 26.4879 118.883 26.4879C118.132 26.4879 117.472 26.6627 116.902 27.0123C116.491 27.2552 116.161 27.5823 115.912 27.9937V26.721H113.814ZM129.408 37.4606C128.359 37.4606 127.427 37.2211 126.611 36.7421C125.809 36.2501 125.168 35.5898 124.689 34.7612C124.223 33.9325 123.989 32.9939 123.989 31.9452C123.989 30.9094 124.223 29.9772 124.689 29.1486C125.155 28.32 125.796 27.6726 126.611 27.2065C127.427 26.7275 128.359 26.4879 129.408 26.4879C130.12 26.4879 130.787 26.6174 131.408 26.8764C132.03 27.1224 132.567 27.4654 133.02 27.9057C133.486 28.3459 133.829 28.8573 134.049 29.4399L132.127 30.3332C131.907 29.7895 131.551 29.3557 131.059 29.032C130.58 28.6954 130.029 28.5271 129.408 28.5271C128.812 28.5271 128.275 28.676 127.796 28.9738C127.33 29.2586 126.961 29.6665 126.689 30.1973C126.417 30.7152 126.281 31.3043 126.281 31.9646C126.281 32.6249 126.417 33.2204 126.689 33.7513C126.961 34.2692 127.33 34.677 127.796 34.9748C128.275 35.2726 128.812 35.4215 129.408 35.4215C130.042 35.4215 130.593 35.2596 131.059 34.9359C131.538 34.5993 131.894 34.1526 132.127 33.5959L134.049 34.5087C133.842 35.0654 133.506 35.5703 133.04 36.0235C132.586 36.4637 132.049 36.8133 131.428 37.0722C130.806 37.3312 130.133 37.4606 129.408 37.4606ZM137.554 36.7421C138.369 37.2211 139.302 37.4606 140.35 37.4606C141.062 37.4606 141.716 37.3506 142.312 37.1305C142.92 36.8974 143.438 36.5867 143.866 36.1983C144.306 35.7969 144.629 35.3502 144.837 34.8583L143.05 33.9843C142.791 34.4375 142.435 34.8065 141.982 35.0913C141.541 35.3761 141.004 35.5186 140.37 35.5186C139.748 35.5186 139.192 35.3697 138.7 35.0719C138.221 34.7741 137.845 34.3598 137.573 33.829C137.395 33.464 137.294 33.0561 137.269 32.6055H145.089C145.128 32.4501 145.154 32.2818 145.167 32.1005C145.18 31.9193 145.186 31.7445 145.186 31.5762C145.186 30.89 145.07 30.2426 144.837 29.6341C144.616 29.0256 144.293 28.4883 143.866 28.0222C143.438 27.5431 142.914 27.1677 142.292 26.8958C141.671 26.6239 140.965 26.4879 140.176 26.4879C139.192 26.4879 138.311 26.7275 137.534 27.2065C136.758 27.6726 136.136 28.3135 135.67 29.1292C135.217 29.9448 134.99 30.8835 134.99 31.9452C134.99 32.9809 135.217 33.9196 135.67 34.7612C136.123 35.5898 136.751 36.2501 137.554 36.7421ZM137.323 30.8576C137.373 30.553 137.456 30.2746 137.573 30.0225C137.819 29.4787 138.169 29.0644 138.622 28.7796C139.075 28.4818 139.593 28.3329 140.176 28.3329C140.758 28.3329 141.263 28.4818 141.69 28.7796C142.131 29.0644 142.454 29.4593 142.661 29.9642C142.785 30.2397 142.853 30.5375 142.867 30.8576H137.323Z" fill="white"/>
</svg>
