<svg width="286" height="77" viewBox="0 0 286 77" fill="none" xmlns="http://www.w3.org/2000/svg">
<path fill-rule="evenodd" clip-rule="evenodd" d="M1.87486 69.768V1.87486H65.9277V0H0.749943C0.335761 0 0 0.335763 0 0.749945V70.8929C0 71.3071 0.335767 71.6428 0.749949 71.6428L65.9277 71.6429V69.768H1.87486ZM71.48 3.07886V68.564H69.6052V3.07886H71.48ZM34.5677 52.7655L31.7556 55.5973C31.1271 56.23 31.1283 57.2531 31.7592 57.8834L34.5677 60.6948C35.1998 61.3275 36.223 61.3275 36.8551 60.6948L39.6732 57.8715C40.304 57.2387 40.304 56.2156 39.6732 55.5829L36.8587 52.7632C36.2266 52.128 35.1986 52.1304 34.5677 52.7655ZM52.6404 34.6639L55.4525 31.8322C56.0834 31.1971 57.1114 31.1947 57.7434 31.8298L60.5579 34.6496C61.1888 35.2823 61.1888 36.3054 60.5579 36.9381L57.7399 39.7615C57.1078 40.3942 56.0846 40.3942 55.4525 39.7615L52.644 36.9501C52.0131 36.3198 52.0119 35.2967 52.6404 34.6639ZM50.1115 45.1109L47.2862 42.2924C46.6549 41.6625 45.6341 41.6637 45.0052 42.296L42.2002 45.1109C41.5689 45.7444 41.5689 46.77 42.2002 47.4035L45.0171 50.228C45.6484 50.8603 46.6692 50.8603 47.3005 50.228L50.1138 47.4071C50.7475 46.7736 50.7451 45.7432 50.1115 45.1109ZM21.3103 45.1301L24.1224 42.2984C24.7533 41.6633 25.7813 41.6609 26.4134 42.296L29.2278 45.1158C29.8587 45.7485 29.8587 46.7716 29.2278 47.4043L26.4098 50.2277C25.7777 50.8604 24.7545 50.8604 24.1224 50.2277L21.3139 47.4163C20.683 46.7859 20.6818 45.7628 21.3103 45.1301ZM13.681 31.8322L10.8689 34.6639C10.2404 35.2967 10.2416 36.3198 10.8725 36.9501L13.681 39.7615C14.3131 40.3942 15.3363 40.3942 15.9684 39.7615L18.7864 36.9381C19.4173 36.3054 19.4173 35.2823 18.7864 34.6496L15.972 31.8298C15.3399 31.1947 14.3119 31.1971 13.681 31.8322ZM42.199 24.1968L45.0111 21.3651C45.642 20.73 46.67 20.7276 47.302 21.3627L50.1165 24.1825C50.7474 24.8152 50.7474 25.8383 50.1165 26.471L47.2985 29.2944C46.6664 29.9271 45.6432 29.9271 45.0111 29.2944L42.2026 26.4829C41.5717 25.8526 41.5705 24.8295 42.199 24.1968ZM34.5677 10.8977L31.7556 13.7294C31.1271 14.3621 31.1283 15.3852 31.7592 16.0155L34.5677 18.827C35.1998 19.4597 36.223 19.4597 36.8551 18.827L39.6732 16.0036C40.304 15.3709 40.304 14.3478 39.6732 13.7151L36.8587 10.8953C36.2266 10.2602 35.1986 10.2626 34.5677 10.8977ZM31.7556 34.6639L34.5677 31.8322C35.1986 31.1971 36.2266 31.1947 36.8587 31.8298L39.6732 34.6496C40.304 35.2823 40.304 36.3054 39.6732 36.9381L36.8551 39.7615C36.223 40.3942 35.1998 40.3942 34.5677 39.7615L31.7592 36.9501C31.1283 36.3198 31.1271 35.2967 31.7556 34.6639ZM24.1224 21.3651L21.3103 24.1968C20.6818 24.8295 20.683 25.8526 21.3139 26.4829L24.1224 29.2944C24.7545 29.9271 25.7777 29.9271 26.4098 29.2944L29.2278 26.471C29.8587 25.8383 29.8587 24.8152 29.2278 24.1825L26.4134 21.3627C25.7813 20.7276 24.7533 20.73 24.1224 21.3651Z" fill="url(#paint0_linear_256_79016)"/>
<path fill-rule="evenodd" clip-rule="evenodd" d="M103.707 3.04199V32.0683H108.03V19.8366C108.03 18.8141 108.221 17.9322 108.603 17.1909C109.011 16.4495 109.56 15.8872 110.248 15.5037C110.963 15.0947 111.753 14.8902 112.62 14.8902C113.513 14.8902 114.304 15.0947 114.992 15.5037C115.681 15.8872 116.216 16.4495 116.599 17.1909C117.007 17.9066 117.211 18.7885 117.211 19.8366V32.0683H121.496V18.6479C121.496 17.1397 121.164 15.7977 120.501 14.6218C119.838 13.4459 118.92 12.5257 117.747 11.8611C116.574 11.1964 115.222 10.8641 113.692 10.8641C112.212 10.8641 110.912 11.2092 109.789 11.8994C109.081 12.3191 108.494 12.8662 108.03 13.5408V3.04199H103.707ZM90.3463 7.52822V32.0683H94.8223V7.52822H102.282V3.50212H82.7715V7.52822H90.3463ZM134.309 32.5284C132.244 32.5284 130.407 32.0555 128.801 31.1097C127.219 30.1383 125.982 28.8346 125.09 27.1986C124.197 25.537 123.751 23.6837 123.751 21.6387C123.751 19.5426 124.197 17.6893 125.09 16.0789C126.008 14.4684 127.232 13.2031 128.762 12.2829C130.293 11.337 132.027 10.8641 133.965 10.8641C135.521 10.8641 136.911 11.1325 138.135 11.6694C139.359 12.2062 140.392 12.9475 141.234 13.8933C142.076 14.8135 142.713 15.8744 143.147 17.0758C143.606 18.2773 143.835 19.5554 143.835 20.9102C143.835 21.2425 143.823 21.5876 143.797 21.9455C143.772 22.3034 143.721 22.6357 143.644 22.9424H128.239C128.288 23.8322 128.488 24.6375 128.839 25.3581C129.374 26.4062 130.114 27.2242 131.058 27.8121C132.027 28.4 133.124 28.694 134.348 28.694C135.597 28.694 136.656 28.4128 137.523 27.8504C138.416 27.2881 139.117 26.5595 139.627 25.6648L143.147 27.3903C142.739 28.3617 142.101 29.2436 141.234 30.036C140.392 30.8029 139.372 31.4164 138.173 31.8765C137 32.3111 135.712 32.5284 134.309 32.5284ZM128.839 17.8427C128.609 18.3404 128.445 18.89 128.347 19.4915H139.267C139.24 18.8595 139.105 18.2715 138.862 17.7277C138.454 16.7307 137.816 15.9511 136.949 15.3887C136.108 14.8008 135.113 14.5068 133.965 14.5068C132.817 14.5068 131.797 14.8008 130.905 15.3887C130.012 15.9511 129.323 16.7691 128.839 17.8427ZM159.753 31.4164C161.488 32.1577 163.362 32.5284 165.377 32.5284C167.392 32.5284 169.19 32.1833 170.771 31.4931C172.378 30.8029 173.73 29.8954 174.827 28.7707C175.923 27.6459 176.714 26.4445 177.199 25.1664L173.143 23.2492C172.531 24.7829 171.549 26.0227 170.198 26.9685C168.871 27.9143 167.265 28.3873 165.377 28.3873C163.49 28.3873 161.819 27.9527 160.366 27.0836C158.912 26.1889 157.777 24.9491 156.961 23.3642C156.17 21.7538 155.775 19.8877 155.775 17.766C155.775 15.6443 156.17 13.791 156.961 12.2062C157.777 10.6213 158.912 9.3815 160.366 8.48681C161.819 7.59212 163.49 7.14478 165.377 7.14478C167.265 7.14478 168.871 7.63047 170.198 8.60184C171.549 9.54766 172.531 10.7874 173.143 12.3212L177.199 10.404C176.714 9.10031 175.923 7.89887 174.827 6.79969C173.73 5.67493 172.378 4.76746 170.771 4.07728C169.19 3.38709 167.392 3.04199 165.377 3.04199C163.337 3.04199 161.462 3.41265 159.753 4.15396C158.045 4.86971 156.553 5.89222 155.277 7.22147C154.002 8.52516 153.008 10.0845 152.293 11.8994C151.605 13.6888 151.26 15.6443 151.26 17.766C151.26 19.9133 151.618 21.8816 152.332 23.671C153.046 25.4603 154.028 27.0197 155.277 28.3489C156.553 29.6526 158.045 30.6751 159.753 31.4164ZM179.89 32.0683V3.04199H184.213V32.0683H179.89ZM192.251 31.1097C193.909 32.0555 195.732 32.5284 197.722 32.5284C199.711 32.5284 201.522 32.0683 203.154 31.148C204.786 30.2022 206.087 28.9113 207.056 27.2753C208.026 25.6393 208.51 23.7732 208.51 21.6771C208.51 19.581 208.026 17.7277 207.056 16.1172C206.113 14.4812 204.825 13.2031 203.192 12.2829C201.586 11.337 199.762 10.8641 197.722 10.8641C195.707 10.8641 193.883 11.337 192.251 12.2829C190.619 13.2031 189.318 14.4812 188.349 16.1172C187.38 17.7277 186.895 19.581 186.895 21.6771C186.895 23.7477 187.38 25.6009 188.349 27.2369C189.318 28.8729 190.619 30.1639 192.251 31.1097ZM200.974 27.6204C200.03 28.2083 198.946 28.5023 197.722 28.5023C196.523 28.5023 195.439 28.2083 194.47 27.6204C193.526 27.0324 192.774 26.2272 192.213 25.2047C191.677 24.1567 191.409 22.9808 191.409 21.6771C191.409 20.3734 191.677 19.2103 192.213 18.1878C192.774 17.1653 193.526 16.3601 194.47 15.7721C195.439 15.1842 196.523 14.8902 197.722 14.8902C198.946 14.8902 200.03 15.1842 200.974 15.7721C201.917 16.3601 202.657 17.1653 203.192 18.1878C203.754 19.2103 204.034 20.3734 204.034 21.6771C204.034 22.9808 203.754 24.1567 203.192 25.2047C202.657 26.2272 201.917 27.0324 200.974 27.6204ZM218.584 32.5284C217.028 32.5284 215.664 32.1833 214.49 31.4931C213.317 30.7774 212.399 29.7932 211.736 28.5406C211.098 27.2625 210.779 25.7927 210.779 24.1311V11.3243H215.103V23.7477C215.103 24.6935 215.294 25.5243 215.676 26.24C216.059 26.9558 216.595 27.5181 217.283 27.9271C217.972 28.3106 218.762 28.5023 219.655 28.5023C220.573 28.5023 221.377 28.2978 222.065 27.8888C222.754 27.4798 223.289 26.9046 223.672 26.1633C224.08 25.422 224.284 24.5529 224.284 23.5559V11.3243H228.569V32.0683H224.475V29.5062C223.996 30.3259 223.345 30.9882 222.524 31.4931C221.402 32.1833 220.089 32.5284 218.584 32.5284ZM232.583 27.1986C233.502 28.8346 234.739 30.1383 236.294 31.1097C237.876 32.0555 239.661 32.5284 241.65 32.5284C243.232 32.5284 244.685 32.1961 246.012 31.5314C247.056 31.0082 247.91 30.3028 248.575 29.4152V32.0683H252.668V3.04199H248.383V13.7338C247.737 12.9723 246.946 12.3481 246.012 11.8611C244.736 11.1964 243.27 10.8641 241.612 10.8641C239.648 10.8641 237.888 11.337 236.333 12.2829C234.777 13.2287 233.54 14.5196 232.622 16.1556C231.704 17.7916 231.244 19.6321 231.244 21.6771C231.244 23.7221 231.691 25.5626 232.583 27.1986ZM245.285 27.6204C244.341 28.2083 243.27 28.5023 242.071 28.5023C240.847 28.5023 239.75 28.2083 238.781 27.6204C237.837 27.0324 237.098 26.2272 236.562 25.2047C236.027 24.1567 235.759 22.9808 235.759 21.6771C235.759 20.3734 236.027 19.2103 236.562 18.1878C237.098 17.1653 237.85 16.3601 238.819 15.7721C239.788 15.1842 240.872 14.8902 242.071 14.8902C243.27 14.8902 244.341 15.1842 245.285 15.7721C246.254 16.3601 247.006 17.1653 247.542 18.1878C248.103 19.2103 248.383 20.3734 248.383 21.6771C248.383 22.9808 248.103 24.1567 247.542 25.2047C247.006 26.2272 246.254 27.0324 245.285 27.6204ZM155.189 68.5644V39.5381H159.512V68.5644H155.189ZM90.2988 39.9982V68.5644H94.8131V39.9982H90.2988ZM98.7712 47.8204V68.5644H103.094V56.3327C103.094 55.3102 103.285 54.4283 103.668 53.687C104.051 52.9456 104.586 52.3833 105.275 51.9998C105.989 51.5908 106.792 51.3863 107.685 51.3863C108.578 51.3863 109.368 51.5908 110.057 51.9998C110.771 52.3833 111.319 52.9456 111.702 53.687C112.085 54.4027 112.276 55.2846 112.276 56.3327V68.5644H116.561V55.1824C116.561 53.6486 116.229 52.2938 115.566 51.1179C114.903 49.942 113.985 49.0218 112.811 48.3572C111.638 47.6925 110.286 47.3602 108.756 47.3602C107.277 47.3602 105.976 47.7053 104.854 48.3955C104.044 48.8751 103.394 49.521 102.903 50.3332V47.8204H98.7712ZM128.609 68.7944C126.441 68.7944 124.758 68.1809 123.559 66.9539C122.36 65.7269 121.761 64.0014 121.761 61.7775V51.7314H118.127V47.8204H118.701C119.67 47.8204 120.422 47.5392 120.958 46.9768C121.493 46.4144 121.761 45.6475 121.761 44.6762V43.0657H126.084V47.8204H130.79V51.7314H126.084V61.5858C126.084 62.3015 126.199 62.915 126.428 63.4263C126.658 63.912 127.028 64.2954 127.538 64.5766C128.048 64.8322 128.711 64.96 129.527 64.96C129.731 64.96 129.961 64.9473 130.216 64.9217C130.471 64.8961 130.713 64.8706 130.943 64.845V68.5644C130.586 68.6155 130.19 68.6666 129.757 68.7177C129.323 68.7689 128.941 68.7944 128.609 68.7944ZM137.466 67.6058C139.072 68.5516 140.909 69.0245 142.975 69.0245C144.377 69.0245 145.665 68.8072 146.839 68.3726C148.037 67.9125 149.057 67.299 149.899 66.5321C150.766 65.7397 151.404 64.8578 151.812 63.8864L148.292 62.1609C147.782 63.0556 147.081 63.7842 146.188 64.3465C145.321 64.9089 144.263 65.1901 143.013 65.1901C141.789 65.1901 140.692 64.8961 139.723 64.3082C138.779 63.7203 138.04 62.9023 137.504 61.8542C137.153 61.1336 136.953 60.3284 136.904 59.4385H152.309C152.386 59.1318 152.437 58.7995 152.462 58.4416C152.488 58.0837 152.501 57.7386 152.501 57.4063C152.501 56.0515 152.271 54.7734 151.812 53.5719C151.378 52.3705 150.741 51.3096 149.899 50.3894C149.057 49.4436 148.025 48.7023 146.8 48.1655C145.576 47.6286 144.186 47.3602 142.63 47.3602C140.692 47.3602 138.958 47.8331 137.427 48.779C135.897 49.6992 134.673 50.9646 133.755 52.575C132.862 54.1854 132.416 56.0387 132.416 58.1348C132.416 60.1798 132.862 62.0331 133.755 63.6947C134.647 65.3307 135.884 66.6344 137.466 67.6058ZM137.012 55.9876C137.11 55.3861 137.274 54.8365 137.504 54.3388C137.989 53.2652 138.677 52.4472 139.57 51.8848C140.462 51.2969 141.483 51.0029 142.63 51.0029C143.778 51.0029 144.773 51.2969 145.614 51.8848C146.482 52.4472 147.119 53.2268 147.527 54.2238C147.77 54.7676 147.905 55.3556 147.932 55.9876H137.012ZM163.036 39.5381V68.5644H167.359V39.5381H163.036ZM170.884 68.5644V47.8204H175.207V68.5644H170.884ZM170.884 44.9829V39.9982H175.207V44.9829H170.884ZM184.546 76.2715C185.821 76.7572 187.211 77 188.716 77C190.679 77 192.414 76.591 193.919 75.773C195.423 74.955 196.596 73.8302 197.438 72.3987C198.305 70.9928 198.739 69.3951 198.739 67.6058V47.8204H194.645V50.4867C193.954 49.6064 193.125 48.9093 192.159 48.3955C190.935 47.7053 189.532 47.3602 187.95 47.3602C186.012 47.3602 184.291 47.8076 182.786 48.7023C181.281 49.597 180.082 50.8112 179.19 52.3449C178.323 53.8787 177.889 55.6297 177.889 57.598C177.889 59.5408 178.323 61.2918 179.19 62.8511C180.082 64.4104 181.294 65.6375 182.824 66.5321C184.354 67.4268 186.076 67.8742 187.989 67.8742C189.57 67.8742 190.986 67.5291 192.235 66.8389C193.106 66.3679 193.845 65.748 194.454 64.9793V67.6058C194.454 68.7305 194.199 69.6891 193.689 70.4816C193.179 71.2996 192.49 71.9131 191.623 72.3221C190.756 72.7566 189.774 72.9739 188.677 72.9739C187.275 72.9739 186.089 72.6544 185.119 72.0153C184.176 71.3762 183.525 70.571 183.168 69.5996L179.19 71.2484C179.649 72.3987 180.337 73.3957 181.256 74.2392C182.174 75.1084 183.27 75.7858 184.546 76.2715ZM191.547 63.0429C190.654 63.5797 189.634 63.8481 188.486 63.8481C187.313 63.8481 186.267 63.5797 185.349 63.0429C184.431 62.4805 183.704 61.7264 183.168 60.7806C182.658 59.8348 182.403 58.7867 182.403 57.6364C182.403 56.4349 182.658 55.3741 183.168 54.4538C183.704 53.508 184.431 52.7667 185.349 52.2299C186.267 51.6675 187.313 51.3863 188.486 51.3863C189.608 51.3863 190.616 51.6675 191.508 52.2299C192.401 52.7667 193.115 53.508 193.651 54.4538C194.186 55.3997 194.454 56.4605 194.454 57.6364C194.454 58.8123 194.186 59.8731 193.651 60.8189C193.141 61.7392 192.439 62.4805 191.547 63.0429ZM211.986 69.0245C209.92 69.0245 208.084 68.5516 206.477 67.6058C204.896 66.6344 203.659 65.3307 202.766 63.6947C201.874 62.0331 201.427 60.1798 201.427 58.1348C201.427 56.0387 201.874 54.1854 202.766 52.575C203.684 50.9646 204.909 49.6992 206.439 48.779C207.969 47.8331 209.703 47.3602 211.642 47.3602C213.198 47.3602 214.588 47.6286 215.812 48.1655C217.036 48.7023 218.069 49.4436 218.911 50.3894C219.752 51.3096 220.39 52.3705 220.823 53.5719C221.283 54.7734 221.512 56.0515 221.512 57.4063C221.512 57.7386 221.499 58.0837 221.474 58.4416C221.448 58.7995 221.397 59.1318 221.321 59.4385H205.915C205.965 60.3284 206.165 61.1336 206.515 61.8542C207.051 62.9023 207.791 63.7203 208.734 64.3082C209.703 64.8961 210.8 65.1901 212.024 65.1901C213.274 65.1901 214.333 64.9089 215.2 64.3465C216.092 63.7842 216.794 63.0556 217.304 62.1609L220.823 63.8864C220.415 64.8578 219.778 65.7397 218.911 66.5321C218.069 67.299 217.049 67.9125 215.85 68.3726C214.677 68.8072 213.389 69.0245 211.986 69.0245ZM206.515 54.3388C206.285 54.8365 206.121 55.3861 206.023 55.9876H216.943C216.916 55.3556 216.781 54.7676 216.539 54.2238C216.131 53.2268 215.493 52.4472 214.626 51.8848C213.784 51.2969 212.79 51.0029 211.642 51.0029C210.494 51.0029 209.474 51.2969 208.581 51.8848C207.689 52.4472 207 53.2652 206.515 54.3388ZM224.201 47.8204V68.5644H228.524V56.3327C228.524 55.3102 228.715 54.4283 229.098 53.687C229.48 52.9456 230.016 52.3833 230.704 51.9998C231.419 51.5908 232.222 51.3863 233.115 51.3863C234.007 51.3863 234.798 51.5908 235.486 51.9998C236.201 52.3833 236.749 52.9456 237.132 53.687C237.514 54.4027 237.705 55.2846 237.705 56.3327V68.5644H241.99V55.1824C241.99 53.6486 241.659 52.2938 240.995 51.1179C240.332 49.942 239.414 49.0218 238.241 48.3572C237.068 47.6925 235.716 47.3602 234.186 47.3602C232.706 47.3602 231.406 47.7053 230.284 48.3955C229.474 48.8751 228.824 49.521 228.332 50.3332V47.8204H224.201ZM254.918 69.0245C252.853 69.0245 251.016 68.5516 249.41 67.6058C247.828 66.6344 246.566 65.3307 245.622 63.6947C244.704 62.0587 244.245 60.2054 244.245 58.1348C244.245 56.0898 244.704 54.2493 245.622 52.6133C246.54 50.9773 247.803 49.6992 249.41 48.779C251.016 47.8331 252.853 47.3602 254.918 47.3602C256.321 47.3602 257.635 47.6159 258.859 48.1271C260.083 48.6128 261.142 49.2902 262.034 50.1593C262.952 51.0285 263.628 52.0382 264.062 53.1885L260.274 54.9523C259.841 53.8787 259.139 53.0223 258.17 52.3833C257.227 51.7186 256.143 51.3863 254.918 51.3863C253.745 51.3863 252.687 51.6803 251.743 52.2682C250.825 52.8306 250.098 53.6358 249.563 54.6839C249.027 55.7064 248.759 56.8695 248.759 58.1732C248.759 59.4769 249.027 60.6528 249.563 61.7008C250.098 62.7233 250.825 63.5285 251.743 64.1165C252.687 64.7044 253.745 64.9984 254.918 64.9984C256.168 64.9984 257.252 64.6789 258.17 64.0398C259.114 63.3752 259.815 62.4933 260.274 61.3941L264.062 63.1962C263.654 64.2954 262.991 65.2924 262.072 66.187C261.18 67.0562 260.121 67.7464 258.897 68.2576C257.673 68.7689 256.347 69.0245 254.918 69.0245ZM270.965 67.6058C272.572 68.5516 274.408 69.0245 276.474 69.0245C277.877 69.0245 279.165 68.8072 280.338 68.3726C281.537 67.9125 282.557 67.299 283.398 66.5321C284.266 65.7397 284.903 64.8578 285.311 63.8864L281.792 62.1609C281.282 63.0556 280.58 63.7842 279.688 64.3465C278.82 64.9089 277.762 65.1901 276.512 65.1901C275.288 65.1901 274.191 64.8961 273.222 64.3082C272.279 63.7203 271.539 62.9023 271.003 61.8542C270.653 61.1336 270.453 60.3284 270.403 59.4385H285.809C285.885 59.1318 285.936 58.7995 285.962 58.4416C285.987 58.0837 286 57.7386 286 57.4063C286 56.0515 285.77 54.7734 285.311 53.5719C284.878 52.3705 284.24 51.3096 283.398 50.3894C282.557 49.4436 281.524 48.7023 280.3 48.1655C279.076 47.6286 277.686 47.3602 276.13 47.3602C274.191 47.3602 272.457 47.8331 270.927 48.779C269.397 49.6992 268.172 50.9646 267.254 52.575C266.362 54.1854 265.915 56.0387 265.915 58.1348C265.915 60.1798 266.362 62.0331 267.254 63.6947C268.147 65.3307 269.384 66.6344 270.965 67.6058ZM270.511 55.9876C270.609 55.3861 270.773 54.8365 271.003 54.3388C271.488 53.2652 272.177 52.4472 273.069 51.8848C273.962 51.2969 274.982 51.0029 276.13 51.0029C277.277 51.0029 278.272 51.2969 279.114 51.8848C279.981 52.4472 280.619 53.2268 281.027 54.2238C281.269 54.7676 281.404 55.3556 281.431 55.9876H270.511Z" fill="url(#paint1_linear_256_79016)"/>
<defs>
<linearGradient id="paint0_linear_256_79016" x1="0" y1="0" x2="69.3977" y2="71.485" gradientUnits="userSpaceOnUse">
<stop stop-color="#057E85"/>
<stop offset="1" stop-color="#2954BD"/>
</linearGradient>
<linearGradient id="paint1_linear_256_79016" x1="82.8233" y1="0.355777" x2="259.722" y2="62.9816" gradientUnits="userSpaceOnUse">
<stop stop-color="#143E94"/>
<stop offset="0.0001" stop-color="#067E87"/>
<stop offset="1" stop-color="#2956BD"/>
</linearGradient>
</defs>
</svg>
